<?xml version="1.0" encoding="UTF-8"?><svg xmlns="http://www.w3.org/2000/svg" viewBox="0 0 1920 1080" width="1920" height="1080"><rect width="1920" height="1080" fill="#000000"/><polygon points="1920.00,540.00 960.00,1500.00 0.00,540.00 960.00,-420.00" fill="#000000" stroke="#FFFFFF" stroke-width="0.6"/><polygon points="1713.70,712.03 787.97,1293.70 206.30,367.97 1132.03,-213.70" fill="#FFFFFF" stroke="#000000" stroke-width="0.6"/><polygon points="1520.91,810.12 689.88,1100.91 399.09,269.88 1230.12,-20.91" fill="#000000" stroke="#FFFFFF" stroke-width="0.6"/><polygon points="1351.97,852.58 647.42,931.97 568.03,227.42 1272.58,148.03" fill="#FFFFFF" stroke="#000000" stroke-width="0.6"/><polygon points="1211.72,855.65 644.35,791.72 708.28,224.35 1275.65,288.28" fill="#000000" stroke="#FFFFFF" stroke-width="0.6"/><polygon points="1101.07,832.93 667.07,681.07 818.93,247.07 1252.93,398.93" fill="#FFFFFF" stroke="#000000" stroke-width="0.6"/><polygon points="1018.26,795.26 704.74,598.26 901.74,284.74 1215.26,481.74" fill="#000000" stroke="#FFFFFF" stroke-width="0.6"/><polygon points="960.00,750.84 749.16,540.00 960.00,329.16 1170.84,540.00" fill="#FFFFFF" stroke="#000000" stroke-width="0.6"/><polygon points="922.22,705.53 794.47,502.22 997.78,374.47 1125.53,577.78" fill="#000000" stroke="#FFFFFF" stroke-width="0.6"/><polygon points="900.67,663.19 836.81,480.67 1019.33,416.81 1083.19,599.33" fill="#FFFFFF" stroke="#000000" stroke-width="0.6"/><polygon points="891.35,626.09 873.91,471.35 1028.65,453.91 1046.09,608.65" fill="#000000" stroke="#FFFFFF" stroke-width="0.6"/><polygon points="890.67,595.29 904.71,470.67 1029.33,484.71 1015.29,609.33" fill="#FFFFFF" stroke="#000000" stroke-width="0.6"/><polygon points="895.66,570.98 929.02,475.66 1024.34,509.02 990.98,604.34" fill="#000000" stroke="#FFFFFF" stroke-width="0.6"/><polygon points="903.94,552.80 947.20,483.94 1016.06,527.20 972.80,596.06" fill="#FFFFFF" stroke="#000000" stroke-width="0.6"/><polygon points="913.69,540.00 960.00,493.69 1006.31,540.00 960.00,586.31" fill="#000000" stroke="#FFFFFF" stroke-width="0.6"/><polygon points="923.64,531.70 968.30,503.64 996.36,548.30 951.70,576.36" fill="#FFFFFF" stroke="#000000" stroke-width="0.6"/><polygon points="932.94,526.97 973.03,512.94 987.06,553.03 946.97,567.06" fill="#000000" stroke="#FFFFFF" stroke-width="0.6"/><polygon points="941.09,524.92 975.08,521.09 978.91,555.08 944.92,558.91" fill="#FFFFFF" stroke="#000000" stroke-width="0.6"/><polygon points="947.86,524.77 975.23,527.86 972.14,555.23 944.77,552.14" fill="#000000" stroke="#FFFFFF" stroke-width="0.6"/><polygon points="953.20,525.87 974.13,533.20 966.80,554.13 945.87,546.80" fill="#FFFFFF" stroke="#000000" stroke-width="0.6"/><polygon points="957.19,527.69 972.31,537.19 962.81,552.31 947.69,542.81" fill="#000000" stroke="#FFFFFF" stroke-width="0.6"/><polygon points="960.00,529.83 970.17,540.00 960.00,550.17 949.83,540.00" fill="#FFFFFF" stroke="#000000" stroke-width="0.6"/><polygon points="961.82,532.02 967.98,541.82 958.18,547.98 952.02,538.18" fill="#000000" stroke="#FFFFFF" stroke-width="0.6"/><polygon points="962.86,534.06 965.94,542.86 957.14,545.94 954.06,537.14" fill="#FFFFFF" stroke="#000000" stroke-width="0.6"/><polygon points="963.31,535.85 964.15,543.31 956.69,544.15 955.85,536.69" fill="#000000" stroke="#FFFFFF" stroke-width="0.6"/><polygon points="963.34,537.33 962.67,543.34 956.66,542.67 957.33,536.66" fill="#FFFFFF" stroke="#000000" stroke-width="0.6"/><polygon points="963.10,538.51 961.49,543.10 956.90,541.49 958.51,536.90" fill="#000000" stroke="#FFFFFF" stroke-width="0.6"/><polygon points="962.70,539.38 960.62,542.70 957.30,540.62 959.38,537.30" fill="#FFFFFF" stroke="#000000" stroke-width="0.6"/><polygon points="962.23,540.00 960.00,542.23 957.77,540.00 960.00,537.77" fill="#000000" stroke="#FFFFFF" stroke-width="0.6"/><polygon points="961.75,540.40 959.60,541.75 958.25,539.60 960.40,538.25" fill="#FFFFFF" stroke="#000000" stroke-width="0.6"/><polygon points="961.31,540.63 959.37,541.31 958.69,539.37 960.63,538.69" fill="#000000" stroke="#FFFFFF" stroke-width="0.6"/><polygon points="960.91,540.73 959.27,540.91 959.09,539.27 960.73,539.09" fill="#FFFFFF" stroke="#000000" stroke-width="0.6"/><polygon points="960.59,540.73 959.27,540.59 959.41,539.27 960.73,539.41" fill="#000000" stroke="#FFFFFF" stroke-width="0.6"/></svg>