<?xml version="1.0" encoding="UTF-8"?>
<svg xmlns="http://www.w3.org/2000/svg" viewBox="0 0 1920 1080" width="1920" height="1080">
  <rect width="1920" height="1080" fill="#090807"/>
  <line x1="0" y1="50" x2="1920" y2="50" stroke="#E5DDD0" stroke-width="0.4" opacity="0.04"/>
  <line x1="0" y1="70" x2="1920" y2="70" stroke="#E5DDD0" stroke-width="0.4" opacity="0.04"/>
  <line x1="0" y1="90" x2="1920" y2="90" stroke="#E5DDD0" stroke-width="0.4" opacity="0.04"/>
  <line x1="0" y1="110" x2="1920" y2="110" stroke="#E5DDD0" stroke-width="0.4" opacity="0.04"/>
  <line x1="0" y1="130" x2="1920" y2="130" stroke="#E5DDD0" stroke-width="0.4" opacity="0.04"/>
  <line x1="0" y1="150" x2="1920" y2="150" stroke="#E5DDD0" stroke-width="0.4" opacity="0.04"/>
  <line x1="0" y1="170" x2="1920" y2="170" stroke="#E5DDD0" stroke-width="0.4" opacity="0.04"/>
  <line x1="0" y1="190" x2="1920" y2="190" stroke="#E5DDD0" stroke-width="0.4" opacity="0.04"/>
  <line x1="0" y1="210" x2="1920" y2="210" stroke="#E5DDD0" stroke-width="0.4" opacity="0.04"/>
  <line x1="0" y1="230" x2="1920" y2="230" stroke="#E5DDD0" stroke-width="0.4" opacity="0.04"/>
  <line x1="0" y1="250" x2="1920" y2="250" stroke="#E5DDD0" stroke-width="0.4" opacity="0.04"/>
  <line x1="0" y1="270" x2="1920" y2="270" stroke="#E5DDD0" stroke-width="0.4" opacity="0.04"/>
  <line x1="0" y1="290" x2="1920" y2="290" stroke="#E5DDD0" stroke-width="0.4" opacity="0.04"/>
  <line x1="0" y1="310" x2="1920" y2="310" stroke="#E5DDD0" stroke-width="0.4" opacity="0.04"/>
  <line x1="0" y1="330" x2="1920" y2="330" stroke="#E5DDD0" stroke-width="0.4" opacity="0.04"/>
  <line x1="0" y1="360" x2="1920" y2="360" stroke="#E5DDD0" stroke-width="0.5" opacity="0.06"/>
  <line x1="0" y1="368" x2="1920" y2="368" stroke="#E5DDD0" stroke-width="0.5" opacity="0.06"/>
  <line x1="0" y1="376" x2="1920" y2="376" stroke="#E5DDD0" stroke-width="0.5" opacity="0.06"/>
  <line x1="0" y1="384" x2="1920" y2="384" stroke="#E5DDD0" stroke-width="0.5" opacity="0.06"/>
  <line x1="0" y1="392" x2="1920" y2="392" stroke="#E5DDD0" stroke-width="0.5" opacity="0.06"/>
  <line x1="0" y1="400" x2="1920" y2="400" stroke="#E5DDD0" stroke-width="0.5" opacity="0.06"/>
  <line x1="0" y1="410" x2="1920" y2="410" stroke="#E5DDD0" stroke-width="0.6" opacity="0.08"/>
  <line x1="0" y1="418" x2="1920" y2="418" stroke="#E5DDD0" stroke-width="0.6" opacity="0.084"/>
  <line x1="0" y1="426" x2="1920" y2="426" stroke="#E5DDD0" stroke-width="0.6" opacity="0.087"/>
  <line x1="0" y1="434" x2="1920" y2="434" stroke="#E5DDD0" stroke-width="0.6" opacity="0.091"/>
  <line x1="0" y1="442" x2="1920" y2="442" stroke="#E5DDD0" stroke-width="0.6" opacity="0.095"/>
  <line x1="0" y1="450" x2="1920" y2="450" stroke="#E5DDD0" stroke-width="0.6" opacity="0.098"/>
  <line x1="0" y1="458" x2="1920" y2="458" stroke="#E5DDD0" stroke-width="0.6" opacity="0.102"/>
  <line x1="0" y1="466" x2="1920" y2="466" stroke="#E5DDD0" stroke-width="0.6" opacity="0.105"/>
  <line x1="0" y1="474" x2="1920" y2="474" stroke="#E5DDD0" stroke-width="0.6" opacity="0.109"/>
  <line x1="0" y1="482" x2="1920" y2="482" stroke="#E5DDD0" stroke-width="0.6" opacity="0.113"/>
  <line x1="0" y1="490" x2="1920" y2="490" stroke="#E5DDD0" stroke-width="0.6" opacity="0.116"/>
  <line x1="0" y1="498" x2="1920" y2="498" stroke="#E5DDD0" stroke-width="0.6" opacity="0.12"/>
  <line x1="0" y1="506" x2="1920" y2="506" stroke="#E5DDD0" stroke-width="0.6" opacity="0.124"/>
  <line x1="0" y1="514" x2="1920" y2="514" stroke="#E5DDD0" stroke-width="0.6" opacity="0.127"/>
  <line x1="0" y1="522" x2="1920" y2="522" stroke="#E5DDD0" stroke-width="0.6" opacity="0.131"/>
  <line x1="0" y1="530" x2="1920" y2="530" stroke="#E5DDD0" stroke-width="0.6" opacity="0.135"/>
  <line x1="0" y1="538" x2="1920" y2="538" stroke="#E5DDD0" stroke-width="0.6" opacity="0.138"/>
  <line x1="0" y1="546" x2="1920" y2="546" stroke="#E5DDD0" stroke-width="0.6" opacity="0.138"/>
  <line x1="0" y1="554" x2="1920" y2="554" stroke="#E5DDD0" stroke-width="0.6" opacity="0.135"/>
  <line x1="0" y1="562" x2="1920" y2="562" stroke="#E5DDD0" stroke-width="0.6" opacity="0.131"/>
  <line x1="0" y1="570" x2="1920" y2="570" stroke="#E5DDD0" stroke-width="0.6" opacity="0.127"/>
  <line x1="0" y1="578" x2="1920" y2="578" stroke="#E5DDD0" stroke-width="0.6" opacity="0.124"/>
  <line x1="0" y1="586" x2="1920" y2="586" stroke="#E5DDD0" stroke-width="0.6" opacity="0.12"/>
  <line x1="0" y1="594" x2="1920" y2="594" stroke="#E5DDD0" stroke-width="0.6" opacity="0.116"/>
  <line x1="0" y1="602" x2="1920" y2="602" stroke="#E5DDD0" stroke-width="0.6" opacity="0.113"/>
  <line x1="0" y1="610" x2="1920" y2="610" stroke="#E5DDD0" stroke-width="0.6" opacity="0.109"/>
  <line x1="0" y1="618" x2="1920" y2="618" stroke="#E5DDD0" stroke-width="0.6" opacity="0.105"/>
  <line x1="0" y1="626" x2="1920" y2="626" stroke="#E5DDD0" stroke-width="0.6" opacity="0.102"/>
  <line x1="0" y1="634" x2="1920" y2="634" stroke="#E5DDD0" stroke-width="0.6" opacity="0.098"/>
  <line x1="0" y1="642" x2="1920" y2="642" stroke="#E5DDD0" stroke-width="0.6" opacity="0.095"/>
  <line x1="0" y1="650" x2="1920" y2="650" stroke="#E5DDD0" stroke-width="0.6" opacity="0.091"/>
  <line x1="0" y1="658" x2="1920" y2="658" stroke="#E5DDD0" stroke-width="0.6" opacity="0.087"/>
  <line x1="0" y1="666" x2="1920" y2="666" stroke="#E5DDD0" stroke-width="0.6" opacity="0.084"/>
  <line x1="0" y1="680" x2="1920" y2="680" stroke="#E5DDD0" stroke-width="0.5" opacity="0.06"/>
  <line x1="0" y1="688" x2="1920" y2="688" stroke="#E5DDD0" stroke-width="0.5" opacity="0.06"/>
  <line x1="0" y1="696" x2="1920" y2="696" stroke="#E5DDD0" stroke-width="0.5" opacity="0.06"/>
  <line x1="0" y1="704" x2="1920" y2="704" stroke="#E5DDD0" stroke-width="0.5" opacity="0.06"/>
  <line x1="0" y1="712" x2="1920" y2="712" stroke="#E5DDD0" stroke-width="0.5" opacity="0.06"/>
  <line x1="0" y1="720" x2="1920" y2="720" stroke="#E5DDD0" stroke-width="0.5" opacity="0.06"/>
  <line x1="0" y1="740" x2="1920" y2="740" stroke="#E5DDD0" stroke-width="0.4" opacity="0.04"/>
  <line x1="0" y1="760" x2="1920" y2="760" stroke="#E5DDD0" stroke-width="0.4" opacity="0.04"/>
  <line x1="0" y1="780" x2="1920" y2="780" stroke="#E5DDD0" stroke-width="0.4" opacity="0.04"/>
  <line x1="0" y1="800" x2="1920" y2="800" stroke="#E5DDD0" stroke-width="0.4" opacity="0.04"/>
  <line x1="0" y1="820" x2="1920" y2="820" stroke="#E5DDD0" stroke-width="0.4" opacity="0.04"/>
  <line x1="0" y1="840" x2="1920" y2="840" stroke="#E5DDD0" stroke-width="0.4" opacity="0.04"/>
  <line x1="0" y1="860" x2="1920" y2="860" stroke="#E5DDD0" stroke-width="0.4" opacity="0.04"/>
  <line x1="0" y1="880" x2="1920" y2="880" stroke="#E5DDD0" stroke-width="0.4" opacity="0.04"/>
  <line x1="0" y1="900" x2="1920" y2="900" stroke="#E5DDD0" stroke-width="0.4" opacity="0.04"/>
  <line x1="0" y1="920" x2="1920" y2="920" stroke="#E5DDD0" stroke-width="0.4" opacity="0.04"/>
  <line x1="0" y1="940" x2="1920" y2="940" stroke="#E5DDD0" stroke-width="0.4" opacity="0.04"/>
  <line x1="0" y1="960" x2="1920" y2="960" stroke="#E5DDD0" stroke-width="0.4" opacity="0.04"/>
  <line x1="0" y1="980" x2="1920" y2="980" stroke="#E5DDD0" stroke-width="0.4" opacity="0.04"/>
  <line x1="0" y1="1000" x2="1920" y2="1000" stroke="#E5DDD0" stroke-width="0.4" opacity="0.04"/>
  <line x1="0" y1="1020" x2="1920" y2="1020" stroke="#E5DDD0" stroke-width="0.4" opacity="0.04"/>
  <line x1="0" y1="1040" x2="1920" y2="1040" stroke="#E5DDD0" stroke-width="0.4" opacity="0.04"/>
</svg>