<?xml version="1.0" encoding="UTF-8"?><svg xmlns="http://www.w3.org/2000/svg" viewBox="0 0 1920 1080" width="1920" height="1080"><rect width="1920" height="1080" fill="#FFFFFF"/><polygon points="-44.0,0.0 0.0,-76.2 44.0,0.0" fill="#FFFFFF"/><polygon points="-44.0,-76.2 0.0,0.0 44.0,-76.2" fill="#000000"/><polygon points="44.0,0.0 88.0,-76.2 132.0,0.0" fill="#000000"/><polygon points="44.0,-76.2 88.0,0.0 132.0,-76.2" fill="#FFFFFF"/><polygon points="132.0,0.0 176.0,-76.2 220.0,0.0" fill="#FFFFFF"/><polygon points="132.0,-76.2 176.0,0.0 220.0,-76.2" fill="#000000"/><polygon points="220.0,0.0 264.0,-76.2 308.0,0.0" fill="#000000"/><polygon points="220.0,-76.2 264.0,0.0 308.0,-76.2" fill="#FFFFFF"/><polygon points="308.0,0.0 352.0,-76.2 396.0,0.0" fill="#FFFFFF"/><polygon points="308.0,-76.2 352.0,0.0 396.0,-76.2" fill="#000000"/><polygon points="396.0,0.0 440.0,-76.2 484.0,0.0" fill="#000000"/><polygon points="396.0,-76.2 440.0,0.0 484.0,-76.2" fill="#FFFFFF"/><polygon points="484.0,0.0 528.0,-76.2 572.0,0.0" fill="#FFFFFF"/><polygon points="484.0,-76.2 528.0,0.0 572.0,-76.2" fill="#000000"/><polygon points="572.0,0.0 616.0,-76.2 660.0,0.0" fill="#000000"/><polygon points="572.0,-76.2 616.0,0.0 660.0,-76.2" fill="#FFFFFF"/><polygon points="660.0,0.0 704.0,-76.2 748.0,0.0" fill="#FFFFFF"/><polygon points="660.0,-76.2 704.0,0.0 748.0,-76.2" fill="#000000"/><polygon points="748.0,0.0 792.0,-76.2 836.0,0.0" fill="#000000"/><polygon points="748.0,-76.2 792.0,0.0 836.0,-76.2" fill="#FFFFFF"/><polygon points="836.0,0.0 880.0,-76.2 924.0,0.0" fill="#FFFFFF"/><polygon points="836.0,-76.2 880.0,0.0 924.0,-76.2" fill="#000000"/><polygon points="924.0,0.0 968.0,-76.2 1012.0,0.0" fill="#000000"/><polygon points="924.0,-76.2 968.0,0.0 1012.0,-76.2" fill="#FFFFFF"/><polygon points="1012.0,0.0 1056.0,-76.2 1100.0,0.0" fill="#FFFFFF"/><polygon points="1012.0,-76.2 1056.0,0.0 1100.0,-76.2" fill="#000000"/><polygon points="1100.0,0.0 1144.0,-76.2 1188.0,0.0" fill="#000000"/><polygon points="1100.0,-76.2 1144.0,0.0 1188.0,-76.2" fill="#FFFFFF"/><polygon points="1188.0,0.0 1232.0,-76.2 1276.0,0.0" fill="#FFFFFF"/><polygon points="1188.0,-76.2 1232.0,0.0 1276.0,-76.2" fill="#000000"/><polygon points="1276.0,0.0 1320.0,-76.2 1364.0,0.0" fill="#000000"/><polygon points="1276.0,-76.2 1320.0,0.0 1364.0,-76.2" fill="#FFFFFF"/><polygon points="1364.0,0.0 1408.0,-76.2 1452.0,0.0" fill="#FFFFFF"/><polygon points="1364.0,-76.2 1408.0,0.0 1452.0,-76.2" fill="#000000"/><polygon points="1452.0,0.0 1496.0,-76.2 1540.0,0.0" fill="#000000"/><polygon points="1452.0,-76.2 1496.0,0.0 1540.0,-76.2" fill="#FFFFFF"/><polygon points="1540.0,0.0 1584.0,-76.2 1628.0,0.0" fill="#FFFFFF"/><polygon points="1540.0,-76.2 1584.0,0.0 1628.0,-76.2" fill="#000000"/><polygon points="1628.0,0.0 1672.0,-76.2 1716.0,0.0" fill="#000000"/><polygon points="1628.0,-76.2 1672.0,0.0 1716.0,-76.2" fill="#FFFFFF"/><polygon points="1716.0,0.0 1760.0,-76.2 1804.0,0.0" fill="#FFFFFF"/><polygon points="1716.0,-76.2 1760.0,0.0 1804.0,-76.2" fill="#000000"/><polygon points="1804.0,0.0 1848.0,-76.2 1892.0,0.0" fill="#000000"/><polygon points="1804.0,-76.2 1848.0,0.0 1892.0,-76.2" fill="#FFFFFF"/><polygon points="1892.0,0.0 1936.0,-76.2 1980.0,0.0" fill="#FFFFFF"/><polygon points="-88.0,76.2 -44.0,0.0 0.0,76.2" fill="#000000"/><polygon points="-88.0,0.0 -44.0,76.2 0.0,0.0" fill="#FFFFFF"/><polygon points="0.0,76.2 44.0,0.0 88.0,76.2" fill="#FFFFFF"/><polygon points="0.0,0.0 44.0,76.2 88.0,0.0" fill="#000000"/><polygon points="88.0,76.2 132.0,0.0 176.0,76.2" fill="#000000"/><polygon points="88.0,0.0 132.0,76.2 176.0,0.0" fill="#FFFFFF"/><polygon points="176.0,76.2 220.0,0.0 264.0,76.2" fill="#FFFFFF"/><polygon points="176.0,0.0 220.0,76.2 264.0,0.0" fill="#000000"/><polygon points="264.0,76.2 308.0,0.0 352.0,76.2" fill="#000000"/><polygon points="264.0,0.0 308.0,76.2 352.0,0.0" fill="#FFFFFF"/><polygon points="352.0,76.2 396.0,0.0 440.0,76.2" fill="#FFFFFF"/><polygon points="352.0,0.0 396.0,76.2 440.0,0.0" fill="#000000"/><polygon points="440.0,76.2 484.0,0.0 528.0,76.2" fill="#000000"/><polygon points="440.0,0.0 484.0,76.2 528.0,0.0" fill="#FFFFFF"/><polygon points="528.0,76.2 572.0,0.0 616.0,76.2" fill="#FFFFFF"/><polygon points="528.0,0.0 572.0,76.2 616.0,0.0" fill="#000000"/><polygon points="616.0,76.2 660.0,0.0 704.0,76.2" fill="#000000"/><polygon points="616.0,0.0 660.0,76.2 704.0,0.0" fill="#FFFFFF"/><polygon points="704.0,76.2 748.0,0.0 792.0,76.2" fill="#FFFFFF"/><polygon points="704.0,0.0 748.0,76.2 792.0,0.0" fill="#000000"/><polygon points="792.0,76.2 836.0,0.0 880.0,76.2" fill="#000000"/><polygon points="792.0,0.0 836.0,76.2 880.0,0.0" fill="#FFFFFF"/><polygon points="880.0,76.2 924.0,0.0 968.0,76.2" fill="#FFFFFF"/><polygon points="880.0,0.0 924.0,76.2 968.0,0.0" fill="#000000"/><polygon points="968.0,76.2 1012.0,0.0 1056.0,76.2" fill="#000000"/><polygon points="968.0,0.0 1012.0,76.2 1056.0,0.0" fill="#FFFFFF"/><polygon points="1056.0,76.2 1100.0,0.0 1144.0,76.2" fill="#FFFFFF"/><polygon points="1056.0,0.0 1100.0,76.2 1144.0,0.0" fill="#000000"/><polygon points="1144.0,76.2 1188.0,0.0 1232.0,76.2" fill="#000000"/><polygon points="1144.0,0.0 1188.0,76.2 1232.0,0.0" fill="#FFFFFF"/><polygon points="1232.0,76.2 1276.0,0.0 1320.0,76.2" fill="#FFFFFF"/><polygon points="1232.0,0.0 1276.0,76.2 1320.0,0.0" fill="#000000"/><polygon points="1320.0,76.2 1364.0,0.0 1408.0,76.2" fill="#000000"/><polygon points="1320.0,0.0 1364.0,76.2 1408.0,0.0" fill="#FFFFFF"/><polygon points="1408.0,76.2 1452.0,0.0 1496.0,76.2" fill="#FFFFFF"/><polygon points="1408.0,0.0 1452.0,76.2 1496.0,0.0" fill="#000000"/><polygon points="1496.0,76.2 1540.0,0.0 1584.0,76.2" fill="#000000"/><polygon points="1496.0,0.0 1540.0,76.2 1584.0,0.0" fill="#FFFFFF"/><polygon points="1584.0,76.2 1628.0,0.0 1672.0,76.2" fill="#FFFFFF"/><polygon points="1584.0,0.0 1628.0,76.2 1672.0,0.0" fill="#000000"/><polygon points="1672.0,76.2 1716.0,0.0 1760.0,76.2" fill="#000000"/><polygon points="1672.0,0.0 1716.0,76.2 1760.0,0.0" fill="#FFFFFF"/><polygon points="1760.0,76.2 1804.0,0.0 1848.0,76.2" fill="#FFFFFF"/><polygon points="1760.0,0.0 1804.0,76.2 1848.0,0.0" fill="#000000"/><polygon points="1848.0,76.2 1892.0,0.0 1936.0,76.2" fill="#000000"/><polygon points="1848.0,0.0 1892.0,76.2 1936.0,0.0" fill="#FFFFFF"/><polygon points="-44.0,152.4 0.0,76.2 44.0,152.4" fill="#FFFFFF"/><polygon points="-44.0,76.2 0.0,152.4 44.0,76.2" fill="#000000"/><polygon points="44.0,152.4 88.0,76.2 132.0,152.4" fill="#000000"/><polygon points="44.0,76.2 88.0,152.4 132.0,76.2" fill="#FFFFFF"/><polygon points="132.0,152.4 176.0,76.2 220.0,152.4" fill="#FFFFFF"/><polygon points="132.0,76.2 176.0,152.4 220.0,76.2" fill="#000000"/><polygon points="220.0,152.4 264.0,76.2 308.0,152.4" fill="#000000"/><polygon points="220.0,76.2 264.0,152.4 308.0,76.2" fill="#FFFFFF"/><polygon points="308.0,152.4 352.0,76.2 396.0,152.4" fill="#FFFFFF"/><polygon points="308.0,76.2 352.0,152.4 396.0,76.2" fill="#000000"/><polygon points="396.0,152.4 440.0,76.2 484.0,152.4" fill="#000000"/><polygon points="396.0,76.2 440.0,152.4 484.0,76.2" fill="#FFFFFF"/><polygon points="484.0,152.4 528.0,76.2 572.0,152.4" fill="#FFFFFF"/><polygon points="484.0,76.2 528.0,152.4 572.0,76.2" fill="#000000"/><polygon points="572.0,152.4 616.0,76.2 660.0,152.4" fill="#000000"/><polygon points="572.0,76.2 616.0,152.4 660.0,76.2" fill="#FFFFFF"/><polygon points="660.0,152.4 704.0,76.2 748.0,152.4" fill="#FFFFFF"/><polygon points="660.0,76.2 704.0,152.4 748.0,76.2" fill="#000000"/><polygon points="748.0,152.4 792.0,76.2 836.0,152.4" fill="#000000"/><polygon points="748.0,76.2 792.0,152.4 836.0,76.2" fill="#FFFFFF"/><polygon points="836.0,152.4 880.0,76.2 924.0,152.4" fill="#FFFFFF"/><polygon points="836.0,76.2 880.0,152.4 924.0,76.2" fill="#000000"/><polygon points="924.0,152.4 968.0,76.2 1012.0,152.4" fill="#000000"/><polygon points="924.0,76.2 968.0,152.4 1012.0,76.2" fill="#FFFFFF"/><polygon points="1012.0,152.4 1056.0,76.2 1100.0,152.4" fill="#FFFFFF"/><polygon points="1012.0,76.2 1056.0,152.4 1100.0,76.2" fill="#000000"/><polygon points="1100.0,152.4 1144.0,76.2 1188.0,152.4" fill="#000000"/><polygon points="1100.0,76.2 1144.0,152.4 1188.0,76.2" fill="#FFFFFF"/><polygon points="1188.0,152.4 1232.0,76.2 1276.0,152.4" fill="#FFFFFF"/><polygon points="1188.0,76.2 1232.0,152.4 1276.0,76.2" fill="#000000"/><polygon points="1276.0,152.4 1320.0,76.2 1364.0,152.4" fill="#000000"/><polygon points="1276.0,76.2 1320.0,152.4 1364.0,76.2" fill="#FFFFFF"/><polygon points="1364.0,152.4 1408.0,76.2 1452.0,152.4" fill="#FFFFFF"/><polygon points="1364.0,76.2 1408.0,152.4 1452.0,76.2" fill="#000000"/><polygon points="1452.0,152.4 1496.0,76.2 1540.0,152.4" fill="#000000"/><polygon points="1452.0,76.2 1496.0,152.4 1540.0,76.2" fill="#FFFFFF"/><polygon points="1540.0,152.4 1584.0,76.2 1628.0,152.4" fill="#FFFFFF"/><polygon points="1540.0,76.2 1584.0,152.4 1628.0,76.2" fill="#000000"/><polygon points="1628.0,152.4 1672.0,76.2 1716.0,152.4" fill="#000000"/><polygon points="1628.0,76.2 1672.0,152.4 1716.0,76.2" fill="#FFFFFF"/><polygon points="1716.0,152.4 1760.0,76.2 1804.0,152.4" fill="#FFFFFF"/><polygon points="1716.0,76.2 1760.0,152.4 1804.0,76.2" fill="#000000"/><polygon points="1804.0,152.4 1848.0,76.2 1892.0,152.4" fill="#000000"/><polygon points="1804.0,76.2 1848.0,152.4 1892.0,76.2" fill="#FFFFFF"/><polygon points="1892.0,152.4 1936.0,76.2 1980.0,152.4" fill="#FFFFFF"/><polygon points="1892.0,76.2 1936.0,152.4 1980.0,76.2" fill="#000000"/><polygon points="-88.0,228.6 -44.0,152.4 0.0,228.6" fill="#000000"/><polygon points="-88.0,152.4 -44.0,228.6 0.0,152.4" fill="#FFFFFF"/><polygon points="0.0,228.6 44.0,152.4 88.0,228.6" fill="#FFFFFF"/><polygon points="0.0,152.4 44.0,228.6 88.0,152.4" fill="#000000"/><polygon points="88.0,228.6 132.0,152.4 176.0,228.6" fill="#000000"/><polygon points="88.0,152.4 132.0,228.6 176.0,152.4" fill="#FFFFFF"/><polygon points="176.0,228.6 220.0,152.4 264.0,228.6" fill="#FFFFFF"/><polygon points="176.0,152.4 220.0,228.6 264.0,152.4" fill="#000000"/><polygon points="264.0,228.6 308.0,152.4 352.0,228.6" fill="#000000"/><polygon points="264.0,152.4 308.0,228.6 352.0,152.4" fill="#FFFFFF"/><polygon points="352.0,228.6 396.0,152.4 440.0,228.6" fill="#FFFFFF"/><polygon points="352.0,152.4 396.0,228.6 440.0,152.4" fill="#000000"/><polygon points="440.0,228.6 484.0,152.4 528.0,228.6" fill="#000000"/><polygon points="440.0,152.4 484.0,228.6 528.0,152.4" fill="#FFFFFF"/><polygon points="528.0,228.6 572.0,152.4 616.0,228.6" fill="#FFFFFF"/><polygon points="528.0,152.4 572.0,228.6 616.0,152.4" fill="#000000"/><polygon points="616.0,228.6 660.0,152.4 704.0,228.6" fill="#000000"/><polygon points="616.0,152.4 660.0,228.6 704.0,152.4" fill="#FFFFFF"/><polygon points="704.0,228.6 748.0,152.4 792.0,228.6" fill="#FFFFFF"/><polygon points="704.0,152.4 748.0,228.6 792.0,152.4" fill="#000000"/><polygon points="792.0,228.6 836.0,152.4 880.0,228.6" fill="#000000"/><polygon points="792.0,152.4 836.0,228.6 880.0,152.4" fill="#FFFFFF"/><polygon points="880.0,228.6 924.0,152.4 968.0,228.6" fill="#FFFFFF"/><polygon points="880.0,152.4 924.0,228.6 968.0,152.4" fill="#000000"/><polygon points="968.0,228.6 1012.0,152.4 1056.0,228.6" fill="#000000"/><polygon points="968.0,152.4 1012.0,228.6 1056.0,152.4" fill="#FFFFFF"/><polygon points="1056.0,228.6 1100.0,152.4 1144.0,228.6" fill="#FFFFFF"/><polygon points="1056.0,152.4 1100.0,228.6 1144.0,152.4" fill="#000000"/><polygon points="1144.0,228.6 1188.0,152.4 1232.0,228.6" fill="#000000"/><polygon points="1144.0,152.4 1188.0,228.6 1232.0,152.4" fill="#FFFFFF"/><polygon points="1232.0,228.6 1276.0,152.4 1320.0,228.6" fill="#FFFFFF"/><polygon points="1232.0,152.4 1276.0,228.6 1320.0,152.4" fill="#000000"/><polygon points="1320.0,228.6 1364.0,152.4 1408.0,228.6" fill="#000000"/><polygon points="1320.0,152.4 1364.0,228.6 1408.0,152.4" fill="#FFFFFF"/><polygon points="1408.0,228.6 1452.0,152.4 1496.0,228.6" fill="#FFFFFF"/><polygon points="1408.0,152.4 1452.0,228.6 1496.0,152.4" fill="#000000"/><polygon points="1496.0,228.6 1540.0,152.4 1584.0,228.6" fill="#000000"/><polygon points="1496.0,152.4 1540.0,228.6 1584.0,152.4" fill="#FFFFFF"/><polygon points="1584.0,228.6 1628.0,152.4 1672.0,228.6" fill="#FFFFFF"/><polygon points="1584.0,152.4 1628.0,228.6 1672.0,152.4" fill="#000000"/><polygon points="1672.0,228.6 1716.0,152.4 1760.0,228.6" fill="#000000"/><polygon points="1672.0,152.4 1716.0,228.6 1760.0,152.4" fill="#FFFFFF"/><polygon points="1760.0,228.6 1804.0,152.4 1848.0,228.6" fill="#FFFFFF"/><polygon points="1760.0,152.4 1804.0,228.6 1848.0,152.4" fill="#000000"/><polygon points="1848.0,228.6 1892.0,152.4 1936.0,228.6" fill="#000000"/><polygon points="1848.0,152.4 1892.0,228.6 1936.0,152.4" fill="#FFFFFF"/><polygon points="-44.0,304.8 0.0,228.6 44.0,304.8" fill="#FFFFFF"/><polygon points="-44.0,228.6 0.0,304.8 44.0,228.6" fill="#000000"/><polygon points="44.0,304.8 88.0,228.6 132.0,304.8" fill="#000000"/><polygon points="44.0,228.6 88.0,304.8 132.0,228.6" fill="#FFFFFF"/><polygon points="132.0,304.8 176.0,228.6 220.0,304.8" fill="#FFFFFF"/><polygon points="132.0,228.6 176.0,304.8 220.0,228.6" fill="#000000"/><polygon points="220.0,304.8 264.0,228.6 308.0,304.8" fill="#000000"/><polygon points="220.0,228.6 264.0,304.8 308.0,228.6" fill="#FFFFFF"/><polygon points="308.0,304.8 352.0,228.6 396.0,304.8" fill="#FFFFFF"/><polygon points="308.0,228.6 352.0,304.8 396.0,228.6" fill="#000000"/><polygon points="396.0,304.8 440.0,228.6 484.0,304.8" fill="#000000"/><polygon points="396.0,228.6 440.0,304.8 484.0,228.6" fill="#FFFFFF"/><polygon points="484.0,304.8 528.0,228.6 572.0,304.8" fill="#FFFFFF"/><polygon points="484.0,228.6 528.0,304.8 572.0,228.6" fill="#000000"/><polygon points="572.0,304.8 616.0,228.6 660.0,304.8" fill="#000000"/><polygon points="572.0,228.6 616.0,304.8 660.0,228.6" fill="#FFFFFF"/><polygon points="660.0,304.8 704.0,228.6 748.0,304.8" fill="#FFFFFF"/><polygon points="660.0,228.6 704.0,304.8 748.0,228.6" fill="#000000"/><polygon points="748.0,304.8 792.0,228.6 836.0,304.8" fill="#000000"/><polygon points="748.0,228.6 792.0,304.8 836.0,228.6" fill="#FFFFFF"/><polygon points="836.0,304.8 880.0,228.6 924.0,304.8" fill="#FFFFFF"/><polygon points="836.0,228.6 880.0,304.8 924.0,228.6" fill="#000000"/><polygon points="924.0,304.8 968.0,228.6 1012.0,304.8" fill="#000000"/><polygon points="924.0,228.6 968.0,304.8 1012.0,228.6" fill="#FFFFFF"/><polygon points="1012.0,304.8 1056.0,228.6 1100.0,304.8" fill="#FFFFFF"/><polygon points="1012.0,228.6 1056.0,304.8 1100.0,228.6" fill="#000000"/><polygon points="1100.0,304.8 1144.0,228.6 1188.0,304.8" fill="#000000"/><polygon points="1100.0,228.6 1144.0,304.8 1188.0,228.6" fill="#FFFFFF"/><polygon points="1188.0,304.8 1232.0,228.6 1276.0,304.8" fill="#FFFFFF"/><polygon points="1188.0,228.6 1232.0,304.8 1276.0,228.6" fill="#000000"/><polygon points="1276.0,304.8 1320.0,228.6 1364.0,304.8" fill="#000000"/><polygon points="1276.0,228.6 1320.0,304.8 1364.0,228.6" fill="#FFFFFF"/><polygon points="1364.0,304.8 1408.0,228.6 1452.0,304.8" fill="#FFFFFF"/><polygon points="1364.0,228.6 1408.0,304.8 1452.0,228.6" fill="#000000"/><polygon points="1452.0,304.8 1496.0,228.6 1540.0,304.8" fill="#000000"/><polygon points="1452.0,228.6 1496.0,304.8 1540.0,228.6" fill="#FFFFFF"/><polygon points="1540.0,304.8 1584.0,228.6 1628.0,304.8" fill="#FFFFFF"/><polygon points="1540.0,228.6 1584.0,304.8 1628.0,228.6" fill="#000000"/><polygon points="1628.0,304.8 1672.0,228.6 1716.0,304.8" fill="#000000"/><polygon points="1628.0,228.6 1672.0,304.8 1716.0,228.6" fill="#FFFFFF"/><polygon points="1716.0,304.8 1760.0,228.6 1804.0,304.8" fill="#FFFFFF"/><polygon points="1716.0,228.6 1760.0,304.8 1804.0,228.6" fill="#000000"/><polygon points="1804.0,304.8 1848.0,228.6 1892.0,304.8" fill="#000000"/><polygon points="1804.0,228.6 1848.0,304.8 1892.0,228.6" fill="#FFFFFF"/><polygon points="1892.0,304.8 1936.0,228.6 1980.0,304.8" fill="#FFFFFF"/><polygon points="1892.0,228.6 1936.0,304.8 1980.0,228.6" fill="#000000"/><polygon points="-88.0,381.1 -44.0,304.8 0.0,381.1" fill="#000000"/><polygon points="-88.0,304.8 -44.0,381.1 0.0,304.8" fill="#FFFFFF"/><polygon points="0.0,381.1 44.0,304.8 88.0,381.1" fill="#FFFFFF"/><polygon points="0.0,304.8 44.0,381.1 88.0,304.8" fill="#000000"/><polygon points="88.0,381.1 132.0,304.8 176.0,381.1" fill="#000000"/><polygon points="88.0,304.8 132.0,381.1 176.0,304.8" fill="#FFFFFF"/><polygon points="176.0,381.1 220.0,304.8 264.0,381.1" fill="#FFFFFF"/><polygon points="176.0,304.8 220.0,381.1 264.0,304.8" fill="#000000"/><polygon points="264.0,381.1 308.0,304.8 352.0,381.1" fill="#000000"/><polygon points="264.0,304.8 308.0,381.1 352.0,304.8" fill="#FFFFFF"/><polygon points="352.0,381.1 396.0,304.8 440.0,381.1" fill="#FFFFFF"/><polygon points="352.0,304.8 396.0,381.1 440.0,304.8" fill="#000000"/><polygon points="440.0,381.1 484.0,304.8 528.0,381.1" fill="#000000"/><polygon points="440.0,304.8 484.0,381.1 528.0,304.8" fill="#FFFFFF"/><polygon points="528.0,381.1 572.0,304.8 616.0,381.1" fill="#FFFFFF"/><polygon points="528.0,304.8 572.0,381.1 616.0,304.8" fill="#000000"/><polygon points="616.0,381.1 660.0,304.8 704.0,381.1" fill="#000000"/><polygon points="616.0,304.8 660.0,381.1 704.0,304.8" fill="#FFFFFF"/><polygon points="704.0,381.1 748.0,304.8 792.0,381.1" fill="#FFFFFF"/><polygon points="704.0,304.8 748.0,381.1 792.0,304.8" fill="#000000"/><polygon points="792.0,381.1 836.0,304.8 880.0,381.1" fill="#000000"/><polygon points="792.0,304.8 836.0,381.1 880.0,304.8" fill="#FFFFFF"/><polygon points="880.0,381.1 924.0,304.8 968.0,381.1" fill="#FFFFFF"/><polygon points="880.0,304.8 924.0,381.1 968.0,304.8" fill="#000000"/><polygon points="968.0,381.1 1012.0,304.8 1056.0,381.1" fill="#000000"/><polygon points="968.0,304.8 1012.0,381.1 1056.0,304.8" fill="#FFFFFF"/><polygon points="1056.0,381.1 1100.0,304.8 1144.0,381.1" fill="#FFFFFF"/><polygon points="1056.0,304.8 1100.0,381.1 1144.0,304.8" fill="#000000"/><polygon points="1144.0,381.1 1188.0,304.8 1232.0,381.1" fill="#000000"/><polygon points="1144.0,304.8 1188.0,381.1 1232.0,304.8" fill="#FFFFFF"/><polygon points="1232.0,381.1 1276.0,304.8 1320.0,381.1" fill="#FFFFFF"/><polygon points="1232.0,304.8 1276.0,381.1 1320.0,304.8" fill="#000000"/><polygon points="1320.0,381.1 1364.0,304.8 1408.0,381.1" fill="#000000"/><polygon points="1320.0,304.8 1364.0,381.1 1408.0,304.8" fill="#FFFFFF"/><polygon points="1408.0,381.1 1452.0,304.8 1496.0,381.1" fill="#FFFFFF"/><polygon points="1408.0,304.8 1452.0,381.1 1496.0,304.8" fill="#000000"/><polygon points="1496.0,381.1 1540.0,304.8 1584.0,381.1" fill="#000000"/><polygon points="1496.0,304.8 1540.0,381.1 1584.0,304.8" fill="#FFFFFF"/><polygon points="1584.0,381.1 1628.0,304.8 1672.0,381.1" fill="#FFFFFF"/><polygon points="1584.0,304.8 1628.0,381.1 1672.0,304.8" fill="#000000"/><polygon points="1672.0,381.1 1716.0,304.8 1760.0,381.1" fill="#000000"/><polygon points="1672.0,304.8 1716.0,381.1 1760.0,304.8" fill="#FFFFFF"/><polygon points="1760.0,381.1 1804.0,304.8 1848.0,381.1" fill="#FFFFFF"/><polygon points="1760.0,304.8 1804.0,381.1 1848.0,304.8" fill="#000000"/><polygon points="1848.0,381.1 1892.0,304.8 1936.0,381.1" fill="#000000"/><polygon points="1848.0,304.8 1892.0,381.1 1936.0,304.8" fill="#FFFFFF"/><polygon points="-44.0,457.3 0.0,381.1 44.0,457.3" fill="#FFFFFF"/><polygon points="-44.0,381.1 0.0,457.3 44.0,381.1" fill="#000000"/><polygon points="44.0,457.3 88.0,381.1 132.0,457.3" fill="#000000"/><polygon points="44.0,381.1 88.0,457.3 132.0,381.1" fill="#FFFFFF"/><polygon points="132.0,457.3 176.0,381.1 220.0,457.3" fill="#FFFFFF"/><polygon points="132.0,381.1 176.0,457.3 220.0,381.1" fill="#000000"/><polygon points="220.0,457.3 264.0,381.1 308.0,457.3" fill="#000000"/><polygon points="220.0,381.1 264.0,457.3 308.0,381.1" fill="#FFFFFF"/><polygon points="308.0,457.3 352.0,381.1 396.0,457.3" fill="#FFFFFF"/><polygon points="308.0,381.1 352.0,457.3 396.0,381.1" fill="#000000"/><polygon points="396.0,457.3 440.0,381.1 484.0,457.3" fill="#000000"/><polygon points="396.0,381.1 440.0,457.3 484.0,381.1" fill="#FFFFFF"/><polygon points="484.0,457.3 528.0,381.1 572.0,457.3" fill="#FFFFFF"/><polygon points="484.0,381.1 528.0,457.3 572.0,381.1" fill="#000000"/><polygon points="572.0,457.3 616.0,381.1 660.0,457.3" fill="#000000"/><polygon points="572.0,381.1 616.0,457.3 660.0,381.1" fill="#FFFFFF"/><polygon points="660.0,457.3 704.0,381.1 748.0,457.3" fill="#FFFFFF"/><polygon points="660.0,381.1 704.0,457.3 748.0,381.1" fill="#000000"/><polygon points="748.0,457.3 792.0,381.1 836.0,457.3" fill="#000000"/><polygon points="748.0,381.1 792.0,457.3 836.0,381.1" fill="#FFFFFF"/><polygon points="836.0,457.3 880.0,381.1 924.0,457.3" fill="#FFFFFF"/><polygon points="836.0,381.1 880.0,457.3 924.0,381.1" fill="#000000"/><polygon points="924.0,457.3 968.0,381.1 1012.0,457.3" fill="#000000"/><polygon points="924.0,381.1 968.0,457.3 1012.0,381.1" fill="#FFFFFF"/><polygon points="1012.0,457.3 1056.0,381.1 1100.0,457.3" fill="#FFFFFF"/><polygon points="1012.0,381.1 1056.0,457.3 1100.0,381.1" fill="#000000"/><polygon points="1100.0,457.3 1144.0,381.1 1188.0,457.3" fill="#000000"/><polygon points="1100.0,381.1 1144.0,457.3 1188.0,381.1" fill="#FFFFFF"/><polygon points="1188.0,457.3 1232.0,381.1 1276.0,457.3" fill="#FFFFFF"/><polygon points="1188.0,381.1 1232.0,457.3 1276.0,381.1" fill="#000000"/><polygon points="1276.0,457.3 1320.0,381.1 1364.0,457.3" fill="#000000"/><polygon points="1276.0,381.1 1320.0,457.3 1364.0,381.1" fill="#FFFFFF"/><polygon points="1364.0,457.3 1408.0,381.1 1452.0,457.3" fill="#FFFFFF"/><polygon points="1364.0,381.1 1408.0,457.3 1452.0,381.1" fill="#000000"/><polygon points="1452.0,457.3 1496.0,381.1 1540.0,457.3" fill="#000000"/><polygon points="1452.0,381.1 1496.0,457.3 1540.0,381.1" fill="#FFFFFF"/><polygon points="1540.0,457.3 1584.0,381.1 1628.0,457.3" fill="#FFFFFF"/><polygon points="1540.0,381.1 1584.0,457.3 1628.0,381.1" fill="#000000"/><polygon points="1628.0,457.3 1672.0,381.1 1716.0,457.3" fill="#000000"/><polygon points="1628.0,381.1 1672.0,457.3 1716.0,381.1" fill="#FFFFFF"/><polygon points="1716.0,457.3 1760.0,381.1 1804.0,457.3" fill="#FFFFFF"/><polygon points="1716.0,381.1 1760.0,457.3 1804.0,381.1" fill="#000000"/><polygon points="1804.0,457.3 1848.0,381.1 1892.0,457.3" fill="#000000"/><polygon points="1804.0,381.1 1848.0,457.3 1892.0,381.1" fill="#FFFFFF"/><polygon points="1892.0,457.3 1936.0,381.1 1980.0,457.3" fill="#FFFFFF"/><polygon points="1892.0,381.1 1936.0,457.3 1980.0,381.1" fill="#000000"/><polygon points="-88.0,533.5 -44.0,457.3 0.0,533.5" fill="#000000"/><polygon points="-88.0,457.3 -44.0,533.5 0.0,457.3" fill="#FFFFFF"/><polygon points="0.0,533.5 44.0,457.3 88.0,533.5" fill="#FFFFFF"/><polygon points="0.0,457.3 44.0,533.5 88.0,457.3" fill="#000000"/><polygon points="88.0,533.5 132.0,457.3 176.0,533.5" fill="#000000"/><polygon points="88.0,457.3 132.0,533.5 176.0,457.3" fill="#FFFFFF"/><polygon points="176.0,533.5 220.0,457.3 264.0,533.5" fill="#FFFFFF"/><polygon points="176.0,457.3 220.0,533.5 264.0,457.3" fill="#000000"/><polygon points="264.0,533.5 308.0,457.3 352.0,533.5" fill="#000000"/><polygon points="264.0,457.3 308.0,533.5 352.0,457.3" fill="#FFFFFF"/><polygon points="352.0,533.5 396.0,457.3 440.0,533.5" fill="#FFFFFF"/><polygon points="352.0,457.3 396.0,533.5 440.0,457.3" fill="#000000"/><polygon points="440.0,533.5 484.0,457.3 528.0,533.5" fill="#000000"/><polygon points="440.0,457.3 484.0,533.5 528.0,457.3" fill="#FFFFFF"/><polygon points="528.0,533.5 572.0,457.3 616.0,533.5" fill="#FFFFFF"/><polygon points="528.0,457.3 572.0,533.5 616.0,457.3" fill="#000000"/><polygon points="616.0,533.5 660.0,457.3 704.0,533.5" fill="#000000"/><polygon points="616.0,457.3 660.0,533.5 704.0,457.3" fill="#FFFFFF"/><polygon points="704.0,533.5 748.0,457.3 792.0,533.5" fill="#FFFFFF"/><polygon points="704.0,457.3 748.0,533.5 792.0,457.3" fill="#000000"/><polygon points="792.0,533.5 836.0,457.3 880.0,533.5" fill="#000000"/><polygon points="792.0,457.3 836.0,533.5 880.0,457.3" fill="#FFFFFF"/><polygon points="880.0,533.5 924.0,457.3 968.0,533.5" fill="#FFFFFF"/><polygon points="880.0,457.3 924.0,533.5 968.0,457.3" fill="#000000"/><polygon points="968.0,533.5 1012.0,457.3 1056.0,533.5" fill="#000000"/><polygon points="968.0,457.3 1012.0,533.5 1056.0,457.3" fill="#FFFFFF"/><polygon points="1056.0,533.5 1100.0,457.3 1144.0,533.5" fill="#FFFFFF"/><polygon points="1056.0,457.3 1100.0,533.5 1144.0,457.3" fill="#000000"/><polygon points="1144.0,533.5 1188.0,457.3 1232.0,533.5" fill="#000000"/><polygon points="1144.0,457.3 1188.0,533.5 1232.0,457.3" fill="#FFFFFF"/><polygon points="1232.0,533.5 1276.0,457.3 1320.0,533.5" fill="#FFFFFF"/><polygon points="1232.0,457.3 1276.0,533.5 1320.0,457.3" fill="#000000"/><polygon points="1320.0,533.5 1364.0,457.3 1408.0,533.5" fill="#000000"/><polygon points="1320.0,457.3 1364.0,533.5 1408.0,457.3" fill="#FFFFFF"/><polygon points="1408.0,533.5 1452.0,457.3 1496.0,533.5" fill="#FFFFFF"/><polygon points="1408.0,457.3 1452.0,533.5 1496.0,457.3" fill="#000000"/><polygon points="1496.0,533.5 1540.0,457.3 1584.0,533.5" fill="#000000"/><polygon points="1496.0,457.3 1540.0,533.5 1584.0,457.3" fill="#FFFFFF"/><polygon points="1584.0,533.5 1628.0,457.3 1672.0,533.5" fill="#FFFFFF"/><polygon points="1584.0,457.3 1628.0,533.5 1672.0,457.3" fill="#000000"/><polygon points="1672.0,533.5 1716.0,457.3 1760.0,533.5" fill="#000000"/><polygon points="1672.0,457.3 1716.0,533.5 1760.0,457.3" fill="#FFFFFF"/><polygon points="1760.0,533.5 1804.0,457.3 1848.0,533.5" fill="#FFFFFF"/><polygon points="1760.0,457.3 1804.0,533.5 1848.0,457.3" fill="#000000"/><polygon points="1848.0,533.5 1892.0,457.3 1936.0,533.5" fill="#000000"/><polygon points="1848.0,457.3 1892.0,533.5 1936.0,457.3" fill="#FFFFFF"/><polygon points="-44.0,609.7 0.0,533.5 44.0,609.7" fill="#FFFFFF"/><polygon points="-44.0,533.5 0.0,609.7 44.0,533.5" fill="#000000"/><polygon points="44.0,609.7 88.0,533.5 132.0,609.7" fill="#000000"/><polygon points="44.0,533.5 88.0,609.7 132.0,533.5" fill="#FFFFFF"/><polygon points="132.0,609.7 176.0,533.5 220.0,609.7" fill="#FFFFFF"/><polygon points="132.0,533.5 176.0,609.7 220.0,533.5" fill="#000000"/><polygon points="220.0,609.7 264.0,533.5 308.0,609.7" fill="#000000"/><polygon points="220.0,533.5 264.0,609.7 308.0,533.5" fill="#FFFFFF"/><polygon points="308.0,609.7 352.0,533.5 396.0,609.7" fill="#FFFFFF"/><polygon points="308.0,533.5 352.0,609.7 396.0,533.5" fill="#000000"/><polygon points="396.0,609.7 440.0,533.5 484.0,609.7" fill="#000000"/><polygon points="396.0,533.5 440.0,609.7 484.0,533.5" fill="#FFFFFF"/><polygon points="484.0,609.7 528.0,533.5 572.0,609.7" fill="#FFFFFF"/><polygon points="484.0,533.5 528.0,609.7 572.0,533.5" fill="#000000"/><polygon points="572.0,609.7 616.0,533.5 660.0,609.7" fill="#000000"/><polygon points="572.0,533.5 616.0,609.7 660.0,533.5" fill="#FFFFFF"/><polygon points="660.0,609.7 704.0,533.5 748.0,609.7" fill="#FFFFFF"/><polygon points="660.0,533.5 704.0,609.7 748.0,533.5" fill="#000000"/><polygon points="748.0,609.7 792.0,533.5 836.0,609.7" fill="#000000"/><polygon points="748.0,533.5 792.0,609.7 836.0,533.5" fill="#FFFFFF"/><polygon points="836.0,609.7 880.0,533.5 924.0,609.7" fill="#FFFFFF"/><polygon points="836.0,533.5 880.0,609.7 924.0,533.5" fill="#000000"/><polygon points="924.0,609.7 968.0,533.5 1012.0,609.7" fill="#000000"/><polygon points="924.0,533.5 968.0,609.7 1012.0,533.5" fill="#FFFFFF"/><polygon points="1012.0,609.7 1056.0,533.5 1100.0,609.7" fill="#FFFFFF"/><polygon points="1012.0,533.5 1056.0,609.7 1100.0,533.5" fill="#000000"/><polygon points="1100.0,609.7 1144.0,533.5 1188.0,609.7" fill="#000000"/><polygon points="1100.0,533.5 1144.0,609.7 1188.0,533.5" fill="#FFFFFF"/><polygon points="1188.0,609.7 1232.0,533.5 1276.0,609.7" fill="#FFFFFF"/><polygon points="1188.0,533.5 1232.0,609.7 1276.0,533.5" fill="#000000"/><polygon points="1276.0,609.7 1320.0,533.5 1364.0,609.7" fill="#000000"/><polygon points="1276.0,533.5 1320.0,609.7 1364.0,533.5" fill="#FFFFFF"/><polygon points="1364.0,609.7 1408.0,533.5 1452.0,609.7" fill="#FFFFFF"/><polygon points="1364.0,533.5 1408.0,609.7 1452.0,533.5" fill="#000000"/><polygon points="1452.0,609.7 1496.0,533.5 1540.0,609.7" fill="#000000"/><polygon points="1452.0,533.5 1496.0,609.7 1540.0,533.5" fill="#FFFFFF"/><polygon points="1540.0,609.7 1584.0,533.5 1628.0,609.7" fill="#FFFFFF"/><polygon points="1540.0,533.5 1584.0,609.7 1628.0,533.5" fill="#000000"/><polygon points="1628.0,609.7 1672.0,533.5 1716.0,609.7" fill="#000000"/><polygon points="1628.0,533.5 1672.0,609.7 1716.0,533.5" fill="#FFFFFF"/><polygon points="1716.0,609.7 1760.0,533.5 1804.0,609.7" fill="#FFFFFF"/><polygon points="1716.0,533.5 1760.0,609.7 1804.0,533.5" fill="#000000"/><polygon points="1804.0,609.7 1848.0,533.5 1892.0,609.7" fill="#000000"/><polygon points="1804.0,533.5 1848.0,609.7 1892.0,533.5" fill="#FFFFFF"/><polygon points="1892.0,609.7 1936.0,533.5 1980.0,609.7" fill="#FFFFFF"/><polygon points="1892.0,533.5 1936.0,609.7 1980.0,533.5" fill="#000000"/><polygon points="-88.0,685.9 -44.0,609.7 0.0,685.9" fill="#000000"/><polygon points="-88.0,609.7 -44.0,685.9 0.0,609.7" fill="#FFFFFF"/><polygon points="0.0,685.9 44.0,609.7 88.0,685.9" fill="#FFFFFF"/><polygon points="0.0,609.7 44.0,685.9 88.0,609.7" fill="#000000"/><polygon points="88.0,685.9 132.0,609.7 176.0,685.9" fill="#000000"/><polygon points="88.0,609.7 132.0,685.9 176.0,609.7" fill="#FFFFFF"/><polygon points="176.0,685.9 220.0,609.7 264.0,685.9" fill="#FFFFFF"/><polygon points="176.0,609.7 220.0,685.9 264.0,609.7" fill="#000000"/><polygon points="264.0,685.9 308.0,609.7 352.0,685.9" fill="#000000"/><polygon points="264.0,609.7 308.0,685.9 352.0,609.7" fill="#FFFFFF"/><polygon points="352.0,685.9 396.0,609.7 440.0,685.9" fill="#FFFFFF"/><polygon points="352.0,609.7 396.0,685.9 440.0,609.7" fill="#000000"/><polygon points="440.0,685.9 484.0,609.7 528.0,685.9" fill="#000000"/><polygon points="440.0,609.7 484.0,685.9 528.0,609.7" fill="#FFFFFF"/><polygon points="528.0,685.9 572.0,609.7 616.0,685.9" fill="#FFFFFF"/><polygon points="528.0,609.7 572.0,685.9 616.0,609.7" fill="#000000"/><polygon points="616.0,685.9 660.0,609.7 704.0,685.9" fill="#000000"/><polygon points="616.0,609.7 660.0,685.9 704.0,609.7" fill="#FFFFFF"/><polygon points="704.0,685.9 748.0,609.7 792.0,685.9" fill="#FFFFFF"/><polygon points="704.0,609.7 748.0,685.9 792.0,609.7" fill="#000000"/><polygon points="792.0,685.9 836.0,609.7 880.0,685.9" fill="#000000"/><polygon points="792.0,609.7 836.0,685.9 880.0,609.7" fill="#FFFFFF"/><polygon points="880.0,685.9 924.0,609.7 968.0,685.9" fill="#FFFFFF"/><polygon points="880.0,609.7 924.0,685.9 968.0,609.7" fill="#000000"/><polygon points="968.0,685.9 1012.0,609.7 1056.0,685.9" fill="#000000"/><polygon points="968.0,609.7 1012.0,685.9 1056.0,609.7" fill="#FFFFFF"/><polygon points="1056.0,685.9 1100.0,609.7 1144.0,685.9" fill="#FFFFFF"/><polygon points="1056.0,609.7 1100.0,685.9 1144.0,609.7" fill="#000000"/><polygon points="1144.0,685.9 1188.0,609.7 1232.0,685.9" fill="#000000"/><polygon points="1144.0,609.7 1188.0,685.9 1232.0,609.7" fill="#FFFFFF"/><polygon points="1232.0,685.9 1276.0,609.7 1320.0,685.9" fill="#FFFFFF"/><polygon points="1232.0,609.7 1276.0,685.9 1320.0,609.7" fill="#000000"/><polygon points="1320.0,685.9 1364.0,609.7 1408.0,685.9" fill="#000000"/><polygon points="1320.0,609.7 1364.0,685.9 1408.0,609.7" fill="#FFFFFF"/><polygon points="1408.0,685.9 1452.0,609.7 1496.0,685.9" fill="#FFFFFF"/><polygon points="1408.0,609.7 1452.0,685.9 1496.0,609.7" fill="#000000"/><polygon points="1496.0,685.9 1540.0,609.7 1584.0,685.9" fill="#000000"/><polygon points="1496.0,609.7 1540.0,685.9 1584.0,609.7" fill="#FFFFFF"/><polygon points="1584.0,685.9 1628.0,609.7 1672.0,685.9" fill="#FFFFFF"/><polygon points="1584.0,609.7 1628.0,685.9 1672.0,609.7" fill="#000000"/><polygon points="1672.0,685.9 1716.0,609.7 1760.0,685.9" fill="#000000"/><polygon points="1672.0,609.7 1716.0,685.9 1760.0,609.7" fill="#FFFFFF"/><polygon points="1760.0,685.9 1804.0,609.7 1848.0,685.9" fill="#FFFFFF"/><polygon points="1760.0,609.7 1804.0,685.9 1848.0,609.7" fill="#000000"/><polygon points="1848.0,685.9 1892.0,609.7 1936.0,685.9" fill="#000000"/><polygon points="1848.0,609.7 1892.0,685.9 1936.0,609.7" fill="#FFFFFF"/><polygon points="-44.0,762.1 0.0,685.9 44.0,762.1" fill="#FFFFFF"/><polygon points="-44.0,685.9 0.0,762.1 44.0,685.9" fill="#000000"/><polygon points="44.0,762.1 88.0,685.9 132.0,762.1" fill="#000000"/><polygon points="44.0,685.9 88.0,762.1 132.0,685.9" fill="#FFFFFF"/><polygon points="132.0,762.1 176.0,685.9 220.0,762.1" fill="#FFFFFF"/><polygon points="132.0,685.9 176.0,762.1 220.0,685.9" fill="#000000"/><polygon points="220.0,762.1 264.0,685.9 308.0,762.1" fill="#000000"/><polygon points="220.0,685.9 264.0,762.1 308.0,685.9" fill="#FFFFFF"/><polygon points="308.0,762.1 352.0,685.9 396.0,762.1" fill="#FFFFFF"/><polygon points="308.0,685.9 352.0,762.1 396.0,685.9" fill="#000000"/><polygon points="396.0,762.1 440.0,685.9 484.0,762.1" fill="#000000"/><polygon points="396.0,685.9 440.0,762.1 484.0,685.9" fill="#FFFFFF"/><polygon points="484.0,762.1 528.0,685.9 572.0,762.1" fill="#FFFFFF"/><polygon points="484.0,685.9 528.0,762.1 572.0,685.9" fill="#000000"/><polygon points="572.0,762.1 616.0,685.9 660.0,762.1" fill="#000000"/><polygon points="572.0,685.9 616.0,762.1 660.0,685.9" fill="#FFFFFF"/><polygon points="660.0,762.1 704.0,685.9 748.0,762.1" fill="#FFFFFF"/><polygon points="660.0,685.9 704.0,762.1 748.0,685.9" fill="#000000"/><polygon points="748.0,762.1 792.0,685.9 836.0,762.1" fill="#000000"/><polygon points="748.0,685.9 792.0,762.1 836.0,685.9" fill="#FFFFFF"/><polygon points="836.0,762.1 880.0,685.9 924.0,762.1" fill="#FFFFFF"/><polygon points="836.0,685.9 880.0,762.1 924.0,685.9" fill="#000000"/><polygon points="924.0,762.1 968.0,685.9 1012.0,762.1" fill="#000000"/><polygon points="924.0,685.9 968.0,762.1 1012.0,685.9" fill="#FFFFFF"/><polygon points="1012.0,762.1 1056.0,685.9 1100.0,762.1" fill="#FFFFFF"/><polygon points="1012.0,685.9 1056.0,762.1 1100.0,685.9" fill="#000000"/><polygon points="1100.0,762.1 1144.0,685.9 1188.0,762.1" fill="#000000"/><polygon points="1100.0,685.9 1144.0,762.1 1188.0,685.9" fill="#FFFFFF"/><polygon points="1188.0,762.1 1232.0,685.9 1276.0,762.1" fill="#FFFFFF"/><polygon points="1188.0,685.9 1232.0,762.1 1276.0,685.9" fill="#000000"/><polygon points="1276.0,762.1 1320.0,685.9 1364.0,762.1" fill="#000000"/><polygon points="1276.0,685.9 1320.0,762.1 1364.0,685.9" fill="#FFFFFF"/><polygon points="1364.0,762.1 1408.0,685.9 1452.0,762.1" fill="#FFFFFF"/><polygon points="1364.0,685.9 1408.0,762.1 1452.0,685.9" fill="#000000"/><polygon points="1452.0,762.1 1496.0,685.9 1540.0,762.1" fill="#000000"/><polygon points="1452.0,685.9 1496.0,762.1 1540.0,685.9" fill="#FFFFFF"/><polygon points="1540.0,762.1 1584.0,685.9 1628.0,762.1" fill="#FFFFFF"/><polygon points="1540.0,685.9 1584.0,762.1 1628.0,685.9" fill="#000000"/><polygon points="1628.0,762.1 1672.0,685.9 1716.0,762.1" fill="#000000"/><polygon points="1628.0,685.9 1672.0,762.1 1716.0,685.9" fill="#FFFFFF"/><polygon points="1716.0,762.1 1760.0,685.9 1804.0,762.1" fill="#FFFFFF"/><polygon points="1716.0,685.9 1760.0,762.1 1804.0,685.9" fill="#000000"/><polygon points="1804.0,762.1 1848.0,685.9 1892.0,762.1" fill="#000000"/><polygon points="1804.0,685.9 1848.0,762.1 1892.0,685.9" fill="#FFFFFF"/><polygon points="1892.0,762.1 1936.0,685.9 1980.0,762.1" fill="#FFFFFF"/><polygon points="1892.0,685.9 1936.0,762.1 1980.0,685.9" fill="#000000"/><polygon points="-88.0,838.3 -44.0,762.1 0.0,838.3" fill="#000000"/><polygon points="-88.0,762.1 -44.0,838.3 0.0,762.1" fill="#FFFFFF"/><polygon points="0.0,838.3 44.0,762.1 88.0,838.3" fill="#FFFFFF"/><polygon points="0.0,762.1 44.0,838.3 88.0,762.1" fill="#000000"/><polygon points="88.0,838.3 132.0,762.1 176.0,838.3" fill="#000000"/><polygon points="88.0,762.1 132.0,838.3 176.0,762.1" fill="#FFFFFF"/><polygon points="176.0,838.3 220.0,762.1 264.0,838.3" fill="#FFFFFF"/><polygon points="176.0,762.1 220.0,838.3 264.0,762.1" fill="#000000"/><polygon points="264.0,838.3 308.0,762.1 352.0,838.3" fill="#000000"/><polygon points="264.0,762.1 308.0,838.3 352.0,762.1" fill="#FFFFFF"/><polygon points="352.0,838.3 396.0,762.1 440.0,838.3" fill="#FFFFFF"/><polygon points="352.0,762.1 396.0,838.3 440.0,762.1" fill="#000000"/><polygon points="440.0,838.3 484.0,762.1 528.0,838.3" fill="#000000"/><polygon points="440.0,762.1 484.0,838.3 528.0,762.1" fill="#FFFFFF"/><polygon points="528.0,838.3 572.0,762.1 616.0,838.3" fill="#FFFFFF"/><polygon points="528.0,762.1 572.0,838.3 616.0,762.1" fill="#000000"/><polygon points="616.0,838.3 660.0,762.1 704.0,838.3" fill="#000000"/><polygon points="616.0,762.1 660.0,838.3 704.0,762.1" fill="#FFFFFF"/><polygon points="704.0,838.3 748.0,762.1 792.0,838.3" fill="#FFFFFF"/><polygon points="704.0,762.1 748.0,838.3 792.0,762.1" fill="#000000"/><polygon points="792.0,838.3 836.0,762.1 880.0,838.3" fill="#000000"/><polygon points="792.0,762.1 836.0,838.3 880.0,762.1" fill="#FFFFFF"/><polygon points="880.0,838.3 924.0,762.1 968.0,838.3" fill="#FFFFFF"/><polygon points="880.0,762.1 924.0,838.3 968.0,762.1" fill="#000000"/><polygon points="968.0,838.3 1012.0,762.1 1056.0,838.3" fill="#000000"/><polygon points="968.0,762.1 1012.0,838.3 1056.0,762.1" fill="#FFFFFF"/><polygon points="1056.0,838.3 1100.0,762.1 1144.0,838.3" fill="#FFFFFF"/><polygon points="1056.0,762.1 1100.0,838.3 1144.0,762.1" fill="#000000"/><polygon points="1144.0,838.3 1188.0,762.1 1232.0,838.3" fill="#000000"/><polygon points="1144.0,762.1 1188.0,838.3 1232.0,762.1" fill="#FFFFFF"/><polygon points="1232.0,838.3 1276.0,762.1 1320.0,838.3" fill="#FFFFFF"/><polygon points="1232.0,762.1 1276.0,838.3 1320.0,762.1" fill="#000000"/><polygon points="1320.0,838.3 1364.0,762.1 1408.0,838.3" fill="#000000"/><polygon points="1320.0,762.1 1364.0,838.3 1408.0,762.1" fill="#FFFFFF"/><polygon points="1408.0,838.3 1452.0,762.1 1496.0,838.3" fill="#FFFFFF"/><polygon points="1408.0,762.1 1452.0,838.3 1496.0,762.1" fill="#000000"/><polygon points="1496.0,838.3 1540.0,762.1 1584.0,838.3" fill="#000000"/><polygon points="1496.0,762.1 1540.0,838.3 1584.0,762.1" fill="#FFFFFF"/><polygon points="1584.0,838.3 1628.0,762.1 1672.0,838.3" fill="#FFFFFF"/><polygon points="1584.0,762.1 1628.0,838.3 1672.0,762.1" fill="#000000"/><polygon points="1672.0,838.3 1716.0,762.1 1760.0,838.3" fill="#000000"/><polygon points="1672.0,762.1 1716.0,838.3 1760.0,762.1" fill="#FFFFFF"/><polygon points="1760.0,838.3 1804.0,762.1 1848.0,838.3" fill="#FFFFFF"/><polygon points="1760.0,762.1 1804.0,838.3 1848.0,762.1" fill="#000000"/><polygon points="1848.0,838.3 1892.0,762.1 1936.0,838.3" fill="#000000"/><polygon points="1848.0,762.1 1892.0,838.3 1936.0,762.1" fill="#FFFFFF"/><polygon points="-44.0,914.5 0.0,838.3 44.0,914.5" fill="#FFFFFF"/><polygon points="-44.0,838.3 0.0,914.5 44.0,838.3" fill="#000000"/><polygon points="44.0,914.5 88.0,838.3 132.0,914.5" fill="#000000"/><polygon points="44.0,838.3 88.0,914.5 132.0,838.3" fill="#FFFFFF"/><polygon points="132.0,914.5 176.0,838.3 220.0,914.5" fill="#FFFFFF"/><polygon points="132.0,838.3 176.0,914.5 220.0,838.3" fill="#000000"/><polygon points="220.0,914.5 264.0,838.3 308.0,914.5" fill="#000000"/><polygon points="220.0,838.3 264.0,914.5 308.0,838.3" fill="#FFFFFF"/><polygon points="308.0,914.5 352.0,838.3 396.0,914.5" fill="#FFFFFF"/><polygon points="308.0,838.3 352.0,914.5 396.0,838.3" fill="#000000"/><polygon points="396.0,914.5 440.0,838.3 484.0,914.5" fill="#000000"/><polygon points="396.0,838.3 440.0,914.5 484.0,838.3" fill="#FFFFFF"/><polygon points="484.0,914.5 528.0,838.3 572.0,914.5" fill="#FFFFFF"/><polygon points="484.0,838.3 528.0,914.5 572.0,838.3" fill="#000000"/><polygon points="572.0,914.5 616.0,838.3 660.0,914.5" fill="#000000"/><polygon points="572.0,838.3 616.0,914.5 660.0,838.3" fill="#FFFFFF"/><polygon points="660.0,914.5 704.0,838.3 748.0,914.5" fill="#FFFFFF"/><polygon points="660.0,838.3 704.0,914.5 748.0,838.3" fill="#000000"/><polygon points="748.0,914.5 792.0,838.3 836.0,914.5" fill="#000000"/><polygon points="748.0,838.3 792.0,914.5 836.0,838.3" fill="#FFFFFF"/><polygon points="836.0,914.5 880.0,838.3 924.0,914.5" fill="#FFFFFF"/><polygon points="836.0,838.3 880.0,914.5 924.0,838.3" fill="#000000"/><polygon points="924.0,914.5 968.0,838.3 1012.0,914.5" fill="#000000"/><polygon points="924.0,838.3 968.0,914.5 1012.0,838.3" fill="#FFFFFF"/><polygon points="1012.0,914.5 1056.0,838.3 1100.0,914.5" fill="#FFFFFF"/><polygon points="1012.0,838.3 1056.0,914.5 1100.0,838.3" fill="#000000"/><polygon points="1100.0,914.5 1144.0,838.3 1188.0,914.5" fill="#000000"/><polygon points="1100.0,838.3 1144.0,914.5 1188.0,838.3" fill="#FFFFFF"/><polygon points="1188.0,914.5 1232.0,838.3 1276.0,914.5" fill="#FFFFFF"/><polygon points="1188.0,838.3 1232.0,914.5 1276.0,838.3" fill="#000000"/><polygon points="1276.0,914.5 1320.0,838.3 1364.0,914.5" fill="#000000"/><polygon points="1276.0,838.3 1320.0,914.5 1364.0,838.3" fill="#FFFFFF"/><polygon points="1364.0,914.5 1408.0,838.3 1452.0,914.5" fill="#FFFFFF"/><polygon points="1364.0,838.3 1408.0,914.5 1452.0,838.3" fill="#000000"/><polygon points="1452.0,914.5 1496.0,838.3 1540.0,914.5" fill="#000000"/><polygon points="1452.0,838.3 1496.0,914.5 1540.0,838.3" fill="#FFFFFF"/><polygon points="1540.0,914.5 1584.0,838.3 1628.0,914.5" fill="#FFFFFF"/><polygon points="1540.0,838.3 1584.0,914.5 1628.0,838.3" fill="#000000"/><polygon points="1628.0,914.5 1672.0,838.3 1716.0,914.5" fill="#000000"/><polygon points="1628.0,838.3 1672.0,914.5 1716.0,838.3" fill="#FFFFFF"/><polygon points="1716.0,914.5 1760.0,838.3 1804.0,914.5" fill="#FFFFFF"/><polygon points="1716.0,838.3 1760.0,914.5 1804.0,838.3" fill="#000000"/><polygon points="1804.0,914.5 1848.0,838.3 1892.0,914.5" fill="#000000"/><polygon points="1804.0,838.3 1848.0,914.5 1892.0,838.3" fill="#FFFFFF"/><polygon points="1892.0,914.5 1936.0,838.3 1980.0,914.5" fill="#FFFFFF"/><polygon points="1892.0,838.3 1936.0,914.5 1980.0,838.3" fill="#000000"/><polygon points="-88.0,990.7 -44.0,914.5 0.0,990.7" fill="#000000"/><polygon points="-88.0,914.5 -44.0,990.7 0.0,914.5" fill="#FFFFFF"/><polygon points="0.0,990.7 44.0,914.5 88.0,990.7" fill="#FFFFFF"/><polygon points="0.0,914.5 44.0,990.7 88.0,914.5" fill="#000000"/><polygon points="88.0,990.7 132.0,914.5 176.0,990.7" fill="#000000"/><polygon points="88.0,914.5 132.0,990.7 176.0,914.5" fill="#FFFFFF"/><polygon points="176.0,990.7 220.0,914.5 264.0,990.7" fill="#FFFFFF"/><polygon points="176.0,914.5 220.0,990.7 264.0,914.5" fill="#000000"/><polygon points="264.0,990.7 308.0,914.5 352.0,990.7" fill="#000000"/><polygon points="264.0,914.5 308.0,990.7 352.0,914.5" fill="#FFFFFF"/><polygon points="352.0,990.7 396.0,914.5 440.0,990.7" fill="#FFFFFF"/><polygon points="352.0,914.5 396.0,990.7 440.0,914.5" fill="#000000"/><polygon points="440.0,990.7 484.0,914.5 528.0,990.7" fill="#000000"/><polygon points="440.0,914.5 484.0,990.7 528.0,914.5" fill="#FFFFFF"/><polygon points="528.0,990.7 572.0,914.5 616.0,990.7" fill="#FFFFFF"/><polygon points="528.0,914.5 572.0,990.7 616.0,914.5" fill="#000000"/><polygon points="616.0,990.7 660.0,914.5 704.0,990.7" fill="#000000"/><polygon points="616.0,914.5 660.0,990.7 704.0,914.5" fill="#FFFFFF"/><polygon points="704.0,990.7 748.0,914.5 792.0,990.7" fill="#FFFFFF"/><polygon points="704.0,914.5 748.0,990.7 792.0,914.5" fill="#000000"/><polygon points="792.0,990.7 836.0,914.5 880.0,990.7" fill="#000000"/><polygon points="792.0,914.5 836.0,990.7 880.0,914.5" fill="#FFFFFF"/><polygon points="880.0,990.7 924.0,914.5 968.0,990.7" fill="#FFFFFF"/><polygon points="880.0,914.5 924.0,990.7 968.0,914.5" fill="#000000"/><polygon points="968.0,990.7 1012.0,914.5 1056.0,990.7" fill="#000000"/><polygon points="968.0,914.5 1012.0,990.7 1056.0,914.5" fill="#FFFFFF"/><polygon points="1056.0,990.7 1100.0,914.5 1144.0,990.7" fill="#FFFFFF"/><polygon points="1056.0,914.5 1100.0,990.7 1144.0,914.5" fill="#000000"/><polygon points="1144.0,990.7 1188.0,914.5 1232.0,990.7" fill="#000000"/><polygon points="1144.0,914.5 1188.0,990.7 1232.0,914.5" fill="#FFFFFF"/><polygon points="1232.0,990.7 1276.0,914.5 1320.0,990.7" fill="#FFFFFF"/><polygon points="1232.0,914.5 1276.0,990.7 1320.0,914.5" fill="#000000"/><polygon points="1320.0,990.7 1364.0,914.5 1408.0,990.7" fill="#000000"/><polygon points="1320.0,914.5 1364.0,990.7 1408.0,914.5" fill="#FFFFFF"/><polygon points="1408.0,990.7 1452.0,914.5 1496.0,990.7" fill="#FFFFFF"/><polygon points="1408.0,914.5 1452.0,990.7 1496.0,914.5" fill="#000000"/><polygon points="1496.0,990.7 1540.0,914.5 1584.0,990.7" fill="#000000"/><polygon points="1496.0,914.5 1540.0,990.7 1584.0,914.5" fill="#FFFFFF"/><polygon points="1584.0,990.7 1628.0,914.5 1672.0,990.7" fill="#FFFFFF"/><polygon points="1584.0,914.5 1628.0,990.7 1672.0,914.5" fill="#000000"/><polygon points="1672.0,990.7 1716.0,914.5 1760.0,990.7" fill="#000000"/><polygon points="1672.0,914.5 1716.0,990.7 1760.0,914.5" fill="#FFFFFF"/><polygon points="1760.0,990.7 1804.0,914.5 1848.0,990.7" fill="#FFFFFF"/><polygon points="1760.0,914.5 1804.0,990.7 1848.0,914.5" fill="#000000"/><polygon points="1848.0,990.7 1892.0,914.5 1936.0,990.7" fill="#000000"/><polygon points="1848.0,914.5 1892.0,990.7 1936.0,914.5" fill="#FFFFFF"/><polygon points="-44.0,1066.9 0.0,990.7 44.0,1066.9" fill="#FFFFFF"/><polygon points="-44.0,990.7 0.0,1066.9 44.0,990.7" fill="#000000"/><polygon points="44.0,1066.9 88.0,990.7 132.0,1066.9" fill="#000000"/><polygon points="44.0,990.7 88.0,1066.9 132.0,990.7" fill="#FFFFFF"/><polygon points="132.0,1066.9 176.0,990.7 220.0,1066.9" fill="#FFFFFF"/><polygon points="132.0,990.7 176.0,1066.9 220.0,990.7" fill="#000000"/><polygon points="220.0,1066.9 264.0,990.7 308.0,1066.9" fill="#000000"/><polygon points="220.0,990.7 264.0,1066.9 308.0,990.7" fill="#FFFFFF"/><polygon points="308.0,1066.9 352.0,990.7 396.0,1066.9" fill="#FFFFFF"/><polygon points="308.0,990.7 352.0,1066.9 396.0,990.7" fill="#000000"/><polygon points="396.0,1066.9 440.0,990.7 484.0,1066.9" fill="#000000"/><polygon points="396.0,990.7 440.0,1066.9 484.0,990.7" fill="#FFFFFF"/><polygon points="484.0,1066.9 528.0,990.7 572.0,1066.9" fill="#FFFFFF"/><polygon points="484.0,990.7 528.0,1066.9 572.0,990.7" fill="#000000"/><polygon points="572.0,1066.9 616.0,990.7 660.0,1066.9" fill="#000000"/><polygon points="572.0,990.7 616.0,1066.9 660.0,990.7" fill="#FFFFFF"/><polygon points="660.0,1066.9 704.0,990.7 748.0,1066.9" fill="#FFFFFF"/><polygon points="660.0,990.7 704.0,1066.9 748.0,990.7" fill="#000000"/><polygon points="748.0,1066.9 792.0,990.7 836.0,1066.9" fill="#000000"/><polygon points="748.0,990.7 792.0,1066.9 836.0,990.7" fill="#FFFFFF"/><polygon points="836.0,1066.9 880.0,990.7 924.0,1066.9" fill="#FFFFFF"/><polygon points="836.0,990.7 880.0,1066.9 924.0,990.7" fill="#000000"/><polygon points="924.0,1066.9 968.0,990.7 1012.0,1066.9" fill="#000000"/><polygon points="924.0,990.7 968.0,1066.9 1012.0,990.7" fill="#FFFFFF"/><polygon points="1012.0,1066.9 1056.0,990.7 1100.0,1066.9" fill="#FFFFFF"/><polygon points="1012.0,990.7 1056.0,1066.9 1100.0,990.7" fill="#000000"/><polygon points="1100.0,1066.9 1144.0,990.7 1188.0,1066.9" fill="#000000"/><polygon points="1100.0,990.7 1144.0,1066.9 1188.0,990.7" fill="#FFFFFF"/><polygon points="1188.0,1066.9 1232.0,990.7 1276.0,1066.9" fill="#FFFFFF"/><polygon points="1188.0,990.7 1232.0,1066.9 1276.0,990.7" fill="#000000"/><polygon points="1276.0,1066.9 1320.0,990.7 1364.0,1066.9" fill="#000000"/><polygon points="1276.0,990.7 1320.0,1066.9 1364.0,990.7" fill="#FFFFFF"/><polygon points="1364.0,1066.9 1408.0,990.7 1452.0,1066.9" fill="#FFFFFF"/><polygon points="1364.0,990.7 1408.0,1066.9 1452.0,990.7" fill="#000000"/><polygon points="1452.0,1066.9 1496.0,990.7 1540.0,1066.9" fill="#000000"/><polygon points="1452.0,990.7 1496.0,1066.9 1540.0,990.7" fill="#FFFFFF"/><polygon points="1540.0,1066.9 1584.0,990.7 1628.0,1066.9" fill="#FFFFFF"/><polygon points="1540.0,990.7 1584.0,1066.9 1628.0,990.7" fill="#000000"/><polygon points="1628.0,1066.9 1672.0,990.7 1716.0,1066.9" fill="#000000"/><polygon points="1628.0,990.7 1672.0,1066.9 1716.0,990.7" fill="#FFFFFF"/><polygon points="1716.0,1066.9 1760.0,990.7 1804.0,1066.9" fill="#FFFFFF"/><polygon points="1716.0,990.7 1760.0,1066.9 1804.0,990.7" fill="#000000"/><polygon points="1804.0,1066.9 1848.0,990.7 1892.0,1066.9" fill="#000000"/><polygon points="1804.0,990.7 1848.0,1066.9 1892.0,990.7" fill="#FFFFFF"/><polygon points="1892.0,1066.9 1936.0,990.7 1980.0,1066.9" fill="#FFFFFF"/><polygon points="1892.0,990.7 1936.0,1066.9 1980.0,990.7" fill="#000000"/><polygon points="-88.0,1066.9 -44.0,1143.2 0.0,1066.9" fill="#FFFFFF"/><polygon points="0.0,1143.2 44.0,1066.9 88.0,1143.2" fill="#FFFFFF"/><polygon points="0.0,1066.9 44.0,1143.2 88.0,1066.9" fill="#000000"/><polygon points="88.0,1143.2 132.0,1066.9 176.0,1143.2" fill="#000000"/><polygon points="88.0,1066.9 132.0,1143.2 176.0,1066.9" fill="#FFFFFF"/><polygon points="176.0,1143.2 220.0,1066.9 264.0,1143.2" fill="#FFFFFF"/><polygon points="176.0,1066.9 220.0,1143.2 264.0,1066.9" fill="#000000"/><polygon points="264.0,1143.2 308.0,1066.9 352.0,1143.2" fill="#000000"/><polygon points="264.0,1066.9 308.0,1143.2 352.0,1066.9" fill="#FFFFFF"/><polygon points="352.0,1143.2 396.0,1066.9 440.0,1143.2" fill="#FFFFFF"/><polygon points="352.0,1066.9 396.0,1143.2 440.0,1066.9" fill="#000000"/><polygon points="440.0,1143.2 484.0,1066.9 528.0,1143.2" fill="#000000"/><polygon points="440.0,1066.9 484.0,1143.2 528.0,1066.9" fill="#FFFFFF"/><polygon points="528.0,1143.2 572.0,1066.9 616.0,1143.2" fill="#FFFFFF"/><polygon points="528.0,1066.9 572.0,1143.2 616.0,1066.9" fill="#000000"/><polygon points="616.0,1143.2 660.0,1066.9 704.0,1143.2" fill="#000000"/><polygon points="616.0,1066.9 660.0,1143.2 704.0,1066.9" fill="#FFFFFF"/><polygon points="704.0,1143.2 748.0,1066.9 792.0,1143.2" fill="#FFFFFF"/><polygon points="704.0,1066.9 748.0,1143.2 792.0,1066.9" fill="#000000"/><polygon points="792.0,1143.2 836.0,1066.9 880.0,1143.2" fill="#000000"/><polygon points="792.0,1066.9 836.0,1143.2 880.0,1066.9" fill="#FFFFFF"/><polygon points="880.0,1143.2 924.0,1066.9 968.0,1143.2" fill="#FFFFFF"/><polygon points="880.0,1066.9 924.0,1143.2 968.0,1066.9" fill="#000000"/><polygon points="968.0,1143.2 1012.0,1066.9 1056.0,1143.2" fill="#000000"/><polygon points="968.0,1066.9 1012.0,1143.2 1056.0,1066.9" fill="#FFFFFF"/><polygon points="1056.0,1143.2 1100.0,1066.9 1144.0,1143.2" fill="#FFFFFF"/><polygon points="1056.0,1066.9 1100.0,1143.2 1144.0,1066.9" fill="#000000"/><polygon points="1144.0,1143.2 1188.0,1066.9 1232.0,1143.2" fill="#000000"/><polygon points="1144.0,1066.9 1188.0,1143.2 1232.0,1066.9" fill="#FFFFFF"/><polygon points="1232.0,1143.2 1276.0,1066.9 1320.0,1143.2" fill="#FFFFFF"/><polygon points="1232.0,1066.9 1276.0,1143.2 1320.0,1066.9" fill="#000000"/><polygon points="1320.0,1143.2 1364.0,1066.9 1408.0,1143.2" fill="#000000"/><polygon points="1320.0,1066.9 1364.0,1143.2 1408.0,1066.9" fill="#FFFFFF"/><polygon points="1408.0,1143.2 1452.0,1066.9 1496.0,1143.2" fill="#FFFFFF"/><polygon points="1408.0,1066.9 1452.0,1143.2 1496.0,1066.9" fill="#000000"/><polygon points="1496.0,1143.2 1540.0,1066.9 1584.0,1143.2" fill="#000000"/><polygon points="1496.0,1066.9 1540.0,1143.2 1584.0,1066.9" fill="#FFFFFF"/><polygon points="1584.0,1143.2 1628.0,1066.9 1672.0,1143.2" fill="#FFFFFF"/><polygon points="1584.0,1066.9 1628.0,1143.2 1672.0,1066.9" fill="#000000"/><polygon points="1672.0,1143.2 1716.0,1066.9 1760.0,1143.2" fill="#000000"/><polygon points="1672.0,1066.9 1716.0,1143.2 1760.0,1066.9" fill="#FFFFFF"/><polygon points="1760.0,1143.2 1804.0,1066.9 1848.0,1143.2" fill="#FFFFFF"/><polygon points="1760.0,1066.9 1804.0,1143.2 1848.0,1066.9" fill="#000000"/><polygon points="1848.0,1143.2 1892.0,1066.9 1936.0,1143.2" fill="#000000"/><polygon points="1848.0,1066.9 1892.0,1143.2 1936.0,1066.9" fill="#FFFFFF"/></svg>