<?xml version="1.0" encoding="UTF-8"?><svg xmlns="http://www.w3.org/2000/svg" viewBox="0 0 1920 1080" width="1920" height="1080"><rect width="1920" height="1080" fill="#000000"/><polygon points="1921.2,717.1 1841.7,826.5 2049.8,758.8" fill="#2A2A2A" stroke="#FFFFFF" stroke-width="0.3"/><polygon points="2049.8,675.3 1921.2,717.1 2049.8,540.0" fill="#2A2A2A" stroke="#FFFFFF" stroke-width="0.3"/><polygon points="1921.2,717.1 2049.8,675.3 2049.8,758.8" fill="#FFFFFF" stroke="#FFFFFF" stroke-width="0.3"/><polygon points="1970.3,868.3 1841.7,826.5 2049.8,758.8" fill="#2A2A2A" stroke="#FFFFFF" stroke-width="0.3"/><polygon points="2098.9,826.5 1970.3,868.3 2178.4,935.9" fill="#2A2A2A" stroke="#FFFFFF" stroke-width="0.3"/><polygon points="1970.3,868.3 2098.9,826.5 2049.8,758.8" fill="#FFFFFF" stroke="#FFFFFF" stroke-width="0.3"/><polygon points="1504.9,581.8 1504.9,717.1 1633.5,540.0" fill="#2A2A2A" stroke="#FFFFFF" stroke-width="0.3"/><polygon points="1584.4,472.4 1504.9,581.8 1504.9,362.9" fill="#2A2A2A" stroke="#FFFFFF" stroke-width="0.3"/><polygon points="1504.9,581.8 1584.4,472.4 1633.5,540.0" fill="#FFFFFF" stroke="#FFFFFF" stroke-width="0.3"/><polygon points="1762.2,717.1 1841.7,826.5 1633.5,758.8" fill="#2A2A2A" stroke="#FFFFFF" stroke-width="0.3"/><polygon points="1633.5,675.3 1762.2,717.1 1633.5,540.0" fill="#2A2A2A" stroke="#FFFFFF" stroke-width="0.3"/><polygon points="1762.2,717.1 1633.5,675.3 1633.5,758.8" fill="#FFFFFF" stroke="#FFFFFF" stroke-width="0.3"/><polygon points="1504.9,717.1 1633.5,675.3 1633.5,758.8" fill="#FFFFFF" stroke="#FFFFFF" stroke-width="0.3"/><polygon points="1633.5,675.3 1504.9,717.1 1633.5,540.0" fill="#2A2A2A" stroke="#FFFFFF" stroke-width="0.3"/><polygon points="1168.1,472.4 1296.8,430.6 1168.1,607.6" fill="#2A2A2A" stroke="#FFFFFF" stroke-width="0.3"/><polygon points="1088.6,581.8 1168.1,472.4 960.0,540.0" fill="#2A2A2A" stroke="#FFFFFF" stroke-width="0.3"/><polygon points="1168.1,472.4 1088.6,581.8 1168.1,607.6" fill="#FFFFFF" stroke="#FFFFFF" stroke-width="0.3"/><polygon points="1376.3,675.3 1504.9,717.1 1376.3,540.0" fill="#2A2A2A" stroke="#FFFFFF" stroke-width="0.3"/><polygon points="1296.8,565.8 1376.3,675.3 1168.1,607.6" fill="#2A2A2A" stroke="#FFFFFF" stroke-width="0.3"/><polygon points="1376.3,675.3 1296.8,565.8 1376.3,540.0" fill="#FFFFFF" stroke="#FFFFFF" stroke-width="0.3"/><polygon points="1296.8,430.6 1296.8,565.8 1376.3,540.0" fill="#FFFFFF" stroke="#FFFFFF" stroke-width="0.3"/><polygon points="1296.8,565.8 1296.8,430.6 1168.1,607.6" fill="#2A2A2A" stroke="#FFFFFF" stroke-width="0.3"/><polygon points="1296.8,430.6 1425.4,472.4 1376.3,540.0" fill="#FFFFFF" stroke="#FFFFFF" stroke-width="0.3"/><polygon points="1425.4,472.4 1296.8,430.6 1504.9,362.9" fill="#2A2A2A" stroke="#FFFFFF" stroke-width="0.3"/><polygon points="1504.9,581.8 1504.9,717.1 1376.3,540.0" fill="#2A2A2A" stroke="#FFFFFF" stroke-width="0.3"/><polygon points="1425.4,472.4 1504.9,581.8 1504.9,362.9" fill="#2A2A2A" stroke="#FFFFFF" stroke-width="0.3"/><polygon points="1504.9,581.8 1425.4,472.4 1376.3,540.0" fill="#FFFFFF" stroke="#FFFFFF" stroke-width="0.3"/><polygon points="1713.0,430.6 1841.7,472.4 1713.0,295.3" fill="#2A2A2A" stroke="#FFFFFF" stroke-width="0.3"/><polygon points="1633.5,321.2 1713.0,430.6 1504.9,362.9" fill="#2A2A2A" stroke="#FFFFFF" stroke-width="0.3"/><polygon points="1713.0,430.6 1633.5,321.2 1713.0,295.3" fill="#FFFFFF" stroke="#FFFFFF" stroke-width="0.3"/><polygon points="1921.2,227.7 2049.8,185.9 1921.2,362.9" fill="#2A2A2A" stroke="#FFFFFF" stroke-width="0.3"/><polygon points="1841.7,337.1 1921.2,227.7 1713.0,295.3" fill="#2A2A2A" stroke="#FFFFFF" stroke-width="0.3"/><polygon points="1921.2,227.7 1841.7,337.1 1921.2,362.9" fill="#FFFFFF" stroke="#FFFFFF" stroke-width="0.3"/><polygon points="1841.7,472.4 1841.7,337.1 1921.2,362.9" fill="#FFFFFF" stroke="#FFFFFF" stroke-width="0.3"/><polygon points="1841.7,337.1 1841.7,472.4 1713.0,295.3" fill="#2A2A2A" stroke="#FFFFFF" stroke-width="0.3"/><polygon points="1841.7,472.4 1970.3,430.6 1921.2,362.9" fill="#FFFFFF" stroke="#FFFFFF" stroke-width="0.3"/><polygon points="1970.3,430.6 1841.7,472.4 2049.8,540.0" fill="#2A2A2A" stroke="#FFFFFF" stroke-width="0.3"/><polygon points="2049.8,321.2 2049.8,185.9 1921.2,362.9" fill="#2A2A2A" stroke="#FFFFFF" stroke-width="0.3"/><polygon points="1970.3,430.6 2049.8,321.2 2049.8,540.0" fill="#2A2A2A" stroke="#FFFFFF" stroke-width="0.3"/><polygon points="2049.8,321.2 1970.3,430.6 1921.2,362.9" fill="#FFFFFF" stroke="#FFFFFF" stroke-width="0.3"/><polygon points="1841.7,472.4 1921.2,581.8 1841.7,607.6" fill="#FFFFFF" stroke="#FFFFFF" stroke-width="0.3"/><polygon points="1921.2,581.8 1841.7,472.4 2049.8,540.0" fill="#2A2A2A" stroke="#FFFFFF" stroke-width="0.3"/><polygon points="1921.2,717.1 1841.7,826.5 1841.7,607.6" fill="#2A2A2A" stroke="#FFFFFF" stroke-width="0.3"/><polygon points="1921.2,581.8 1921.2,717.1 2049.8,540.0" fill="#2A2A2A" stroke="#FFFFFF" stroke-width="0.3"/><polygon points="1921.2,717.1 1921.2,581.8 1841.7,607.6" fill="#FFFFFF" stroke="#FFFFFF" stroke-width="0.3"/><polygon points="1713.0,430.6 1841.7,472.4 1633.5,540.0" fill="#2A2A2A" stroke="#FFFFFF" stroke-width="0.3"/><polygon points="1584.4,472.4 1713.0,430.6 1504.9,362.9" fill="#2A2A2A" stroke="#FFFFFF" stroke-width="0.3"/><polygon points="1713.0,430.6 1584.4,472.4 1633.5,540.0" fill="#FFFFFF" stroke="#FFFFFF" stroke-width="0.3"/><polygon points="1762.2,717.1 1841.7,826.5 1841.7,607.6" fill="#2A2A2A" stroke="#FFFFFF" stroke-width="0.3"/><polygon points="1762.2,581.8 1762.2,717.1 1633.5,540.0" fill="#2A2A2A" stroke="#FFFFFF" stroke-width="0.3"/><polygon points="1762.2,717.1 1762.2,581.8 1841.7,607.6" fill="#FFFFFF" stroke="#FFFFFF" stroke-width="0.3"/><polygon points="1841.7,472.4 1762.2,581.8 1841.7,607.6" fill="#FFFFFF" stroke="#FFFFFF" stroke-width="0.3"/><polygon points="1762.2,581.8 1841.7,472.4 1633.5,540.0" fill="#2A2A2A" stroke="#FFFFFF" stroke-width="0.3"/><polygon points="2049.8,1112.9 1921.2,1071.2 1970.3,1003.5" fill="#FFFFFF" stroke="#FFFFFF" stroke-width="0.3"/><polygon points="1921.2,1071.2 2049.8,1112.9 1841.7,1180.6" fill="#2A2A2A" stroke="#FFFFFF" stroke-width="0.3"/><polygon points="1841.7,961.7 1841.7,826.5 1970.3,1003.5" fill="#2A2A2A" stroke="#FFFFFF" stroke-width="0.3"/><polygon points="1921.2,1071.2 1841.7,961.7 1841.7,1180.6" fill="#2A2A2A" stroke="#FFFFFF" stroke-width="0.3"/><polygon points="1841.7,961.7 1921.2,1071.2 1970.3,1003.5" fill="#FFFFFF" stroke="#FFFFFF" stroke-width="0.3"/><polygon points="1970.3,868.3 1841.7,826.5 1970.3,1003.5" fill="#2A2A2A" stroke="#FFFFFF" stroke-width="0.3"/><polygon points="2049.8,977.7 1970.3,868.3 2178.4,935.9" fill="#2A2A2A" stroke="#FFFFFF" stroke-width="0.3"/><polygon points="1970.3,868.3 2049.8,977.7 1970.3,1003.5" fill="#FFFFFF" stroke="#FFFFFF" stroke-width="0.3"/><polygon points="2049.8,1112.9 2049.8,977.7 1970.3,1003.5" fill="#FFFFFF" stroke="#FFFFFF" stroke-width="0.3"/><polygon points="2049.8,1112.9 1970.3,1222.4 2049.8,1248.2" fill="#FFFFFF" stroke="#FFFFFF" stroke-width="0.3"/><polygon points="1970.3,1222.4 2049.8,1112.9 1841.7,1180.6" fill="#2A2A2A" stroke="#FFFFFF" stroke-width="0.3"/><polygon points="1425.4,826.5 1504.9,717.1 1504.9,935.9" fill="#2A2A2A" stroke="#FFFFFF" stroke-width="0.3"/><polygon points="1425.4,961.7 1425.4,826.5 1296.8,1003.5" fill="#2A2A2A" stroke="#FFFFFF" stroke-width="0.3"/><polygon points="1425.4,826.5 1425.4,961.7 1504.9,935.9" fill="#FFFFFF" stroke="#FFFFFF" stroke-width="0.3"/><polygon points="1713.0,868.3 1841.7,826.5 1633.5,758.8" fill="#2A2A2A" stroke="#FFFFFF" stroke-width="0.3"/><polygon points="1584.4,826.5 1713.0,868.3 1504.9,935.9" fill="#2A2A2A" stroke="#FFFFFF" stroke-width="0.3"/><polygon points="1713.0,868.3 1584.4,826.5 1633.5,758.8" fill="#FFFFFF" stroke="#FFFFFF" stroke-width="0.3"/><polygon points="1504.9,717.1 1584.4,826.5 1633.5,758.8" fill="#FFFFFF" stroke="#FFFFFF" stroke-width="0.3"/><polygon points="1584.4,826.5 1504.9,717.1 1504.9,935.9" fill="#2A2A2A" stroke="#FFFFFF" stroke-width="0.3"/><polygon points="1088.6,717.1 1168.1,826.5 1168.1,607.6" fill="#2A2A2A" stroke="#FFFFFF" stroke-width="0.3"/><polygon points="1088.6,581.8 1088.6,717.1 960.0,540.0" fill="#2A2A2A" stroke="#FFFFFF" stroke-width="0.3"/><polygon points="1088.6,717.1 1088.6,581.8 1168.1,607.6" fill="#FFFFFF" stroke="#FFFFFF" stroke-width="0.3"/><polygon points="1376.3,675.3 1504.9,717.1 1296.8,784.7" fill="#2A2A2A" stroke="#FFFFFF" stroke-width="0.3"/><polygon points="1247.6,717.1 1376.3,675.3 1168.1,607.6" fill="#2A2A2A" stroke="#FFFFFF" stroke-width="0.3"/><polygon points="1376.3,675.3 1247.6,717.1 1296.8,784.7" fill="#FFFFFF" stroke="#FFFFFF" stroke-width="0.3"/><polygon points="1168.1,826.5 1247.6,717.1 1296.8,784.7" fill="#FFFFFF" stroke="#FFFFFF" stroke-width="0.3"/><polygon points="1247.6,717.1 1168.1,826.5 1168.1,607.6" fill="#2A2A2A" stroke="#FFFFFF" stroke-width="0.3"/><polygon points="1168.1,826.5 1296.8,868.3 1296.8,784.7" fill="#FFFFFF" stroke="#FFFFFF" stroke-width="0.3"/><polygon points="1296.8,868.3 1168.1,826.5 1296.8,1003.5" fill="#2A2A2A" stroke="#FFFFFF" stroke-width="0.3"/><polygon points="1425.4,826.5 1504.9,717.1 1296.8,784.7" fill="#2A2A2A" stroke="#FFFFFF" stroke-width="0.3"/><polygon points="1296.8,868.3 1425.4,826.5 1296.8,1003.5" fill="#2A2A2A" stroke="#FFFFFF" stroke-width="0.3"/><polygon points="1425.4,826.5 1296.8,868.3 1296.8,784.7" fill="#FFFFFF" stroke="#FFFFFF" stroke-width="0.3"/><polygon points="1504.9,1071.2 1633.5,1112.9 1425.4,1180.6" fill="#2A2A2A" stroke="#FFFFFF" stroke-width="0.3"/><polygon points="1376.3,1112.9 1504.9,1071.2 1296.8,1003.5" fill="#2A2A2A" stroke="#FFFFFF" stroke-width="0.3"/><polygon points="1504.9,1071.2 1376.3,1112.9 1425.4,1180.6" fill="#FFFFFF" stroke="#FFFFFF" stroke-width="0.3"/><polygon points="1633.5,1112.9 1554.0,1222.4 1633.5,1248.2" fill="#FFFFFF" stroke="#FFFFFF" stroke-width="0.3"/><polygon points="1554.0,1222.4 1633.5,1112.9 1425.4,1180.6" fill="#2A2A2A" stroke="#FFFFFF" stroke-width="0.3"/><polygon points="1633.5,1112.9 1713.0,1222.4 1633.5,1248.2" fill="#FFFFFF" stroke="#FFFFFF" stroke-width="0.3"/><polygon points="1713.0,1222.4 1633.5,1112.9 1841.7,1180.6" fill="#2A2A2A" stroke="#FFFFFF" stroke-width="0.3"/><polygon points="1633.5,1112.9 1762.2,1071.2 1713.0,1003.5" fill="#FFFFFF" stroke="#FFFFFF" stroke-width="0.3"/><polygon points="1762.2,1071.2 1633.5,1112.9 1841.7,1180.6" fill="#2A2A2A" stroke="#FFFFFF" stroke-width="0.3"/><polygon points="1841.7,961.7 1841.7,826.5 1713.0,1003.5" fill="#2A2A2A" stroke="#FFFFFF" stroke-width="0.3"/><polygon points="1762.2,1071.2 1841.7,961.7 1841.7,1180.6" fill="#2A2A2A" stroke="#FFFFFF" stroke-width="0.3"/><polygon points="1841.7,961.7 1762.2,1071.2 1713.0,1003.5" fill="#FFFFFF" stroke="#FFFFFF" stroke-width="0.3"/><polygon points="1504.9,1071.2 1633.5,1112.9 1504.9,935.9" fill="#2A2A2A" stroke="#FFFFFF" stroke-width="0.3"/><polygon points="1425.4,961.7 1504.9,1071.2 1296.8,1003.5" fill="#2A2A2A" stroke="#FFFFFF" stroke-width="0.3"/><polygon points="1504.9,1071.2 1425.4,961.7 1504.9,935.9" fill="#FFFFFF" stroke="#FFFFFF" stroke-width="0.3"/><polygon points="1713.0,868.3 1841.7,826.5 1713.0,1003.5" fill="#2A2A2A" stroke="#FFFFFF" stroke-width="0.3"/><polygon points="1633.5,977.7 1713.0,868.3 1504.9,935.9" fill="#2A2A2A" stroke="#FFFFFF" stroke-width="0.3"/><polygon points="1713.0,868.3 1633.5,977.7 1713.0,1003.5" fill="#FFFFFF" stroke="#FFFFFF" stroke-width="0.3"/><polygon points="1633.5,1112.9 1633.5,977.7 1713.0,1003.5" fill="#FFFFFF" stroke="#FFFFFF" stroke-width="0.3"/><polygon points="1633.5,977.7 1633.5,1112.9 1504.9,935.9" fill="#2A2A2A" stroke="#FFFFFF" stroke-width="0.3"/><polygon points="1088.6,1071.2 960.0,1112.9 1168.1,1180.6" fill="#2A2A2A" stroke="#FFFFFF" stroke-width="0.3"/><polygon points="1217.3,1112.9 1088.6,1071.2 1296.8,1003.5" fill="#2A2A2A" stroke="#FFFFFF" stroke-width="0.3"/><polygon points="1088.6,1071.2 1217.3,1112.9 1168.1,1180.6" fill="#FFFFFF" stroke="#FFFFFF" stroke-width="0.3"/><polygon points="960.0,1112.9 1039.5,1222.4 960.0,1248.2" fill="#FFFFFF" stroke="#FFFFFF" stroke-width="0.3"/><polygon points="1039.5,1222.4 960.0,1112.9 1168.1,1180.6" fill="#2A2A2A" stroke="#FFFFFF" stroke-width="0.3"/><polygon points="1088.6,717.1 1168.1,826.5 960.0,758.8" fill="#2A2A2A" stroke="#FFFFFF" stroke-width="0.3"/><polygon points="960.0,675.3 1088.6,717.1 960.0,540.0" fill="#2A2A2A" stroke="#FFFFFF" stroke-width="0.3"/><polygon points="1088.6,717.1 960.0,675.3 960.0,758.8" fill="#FFFFFF" stroke="#FFFFFF" stroke-width="0.3"/><polygon points="960.0,977.7 960.0,1112.9 1088.6,935.9" fill="#2A2A2A" stroke="#FFFFFF" stroke-width="0.3"/><polygon points="1039.5,868.3 960.0,977.7 960.0,758.8" fill="#2A2A2A" stroke="#FFFFFF" stroke-width="0.3"/><polygon points="960.0,977.7 1039.5,868.3 1088.6,935.9" fill="#FFFFFF" stroke="#FFFFFF" stroke-width="0.3"/><polygon points="1168.1,826.5 1039.5,868.3 1088.6,935.9" fill="#FFFFFF" stroke="#FFFFFF" stroke-width="0.3"/><polygon points="1039.5,868.3 1168.1,826.5 960.0,758.8" fill="#2A2A2A" stroke="#FFFFFF" stroke-width="0.3"/><polygon points="1168.1,826.5 1168.1,961.7 1088.6,935.9" fill="#FFFFFF" stroke="#FFFFFF" stroke-width="0.3"/><polygon points="1168.1,961.7 1168.1,826.5 1296.8,1003.5" fill="#2A2A2A" stroke="#FFFFFF" stroke-width="0.3"/><polygon points="1088.6,1071.2 960.0,1112.9 1088.6,935.9" fill="#2A2A2A" stroke="#FFFFFF" stroke-width="0.3"/><polygon points="1168.1,961.7 1088.6,1071.2 1296.8,1003.5" fill="#2A2A2A" stroke="#FFFFFF" stroke-width="0.3"/><polygon points="1088.6,1071.2 1168.1,961.7 1088.6,935.9" fill="#FFFFFF" stroke="#FFFFFF" stroke-width="0.3"/><polygon points="1376.3,1112.9 1296.8,1222.4 1296.8,1003.5" fill="#2A2A2A" stroke="#FFFFFF" stroke-width="0.3"/><polygon points="1296.8,1222.4 1376.3,1112.9 1425.4,1180.6" fill="#FFFFFF" stroke="#FFFFFF" stroke-width="0.3"/><polygon points="1217.3,1112.9 1296.8,1222.4 1296.8,1003.5" fill="#2A2A2A" stroke="#FFFFFF" stroke-width="0.3"/><polygon points="1296.8,1222.4 1217.3,1112.9 1168.1,1180.6" fill="#FFFFFF" stroke="#FFFFFF" stroke-width="0.3"/><polygon points="831.4,1071.2 960.0,1112.9 751.9,1180.6" fill="#2A2A2A" stroke="#FFFFFF" stroke-width="0.3"/><polygon points="702.7,1112.9 831.4,1071.2 623.2,1003.5" fill="#2A2A2A" stroke="#FFFFFF" stroke-width="0.3"/><polygon points="831.4,1071.2 702.7,1112.9 751.9,1180.6" fill="#FFFFFF" stroke="#FFFFFF" stroke-width="0.3"/><polygon points="960.0,1112.9 880.5,1222.4 960.0,1248.2" fill="#FFFFFF" stroke="#FFFFFF" stroke-width="0.3"/><polygon points="880.5,1222.4 960.0,1112.9 751.9,1180.6" fill="#2A2A2A" stroke="#FFFFFF" stroke-width="0.3"/><polygon points="831.4,717.1 751.9,826.5 960.0,758.8" fill="#2A2A2A" stroke="#FFFFFF" stroke-width="0.3"/><polygon points="960.0,675.3 831.4,717.1 960.0,540.0" fill="#2A2A2A" stroke="#FFFFFF" stroke-width="0.3"/><polygon points="831.4,717.1 960.0,675.3 960.0,758.8" fill="#FFFFFF" stroke="#FFFFFF" stroke-width="0.3"/><polygon points="960.0,977.7 960.0,1112.9 831.4,935.9" fill="#2A2A2A" stroke="#FFFFFF" stroke-width="0.3"/><polygon points="880.5,868.3 960.0,977.7 960.0,758.8" fill="#2A2A2A" stroke="#FFFFFF" stroke-width="0.3"/><polygon points="960.0,977.7 880.5,868.3 831.4,935.9" fill="#FFFFFF" stroke="#FFFFFF" stroke-width="0.3"/><polygon points="751.9,826.5 880.5,868.3 831.4,935.9" fill="#FFFFFF" stroke="#FFFFFF" stroke-width="0.3"/><polygon points="880.5,868.3 751.9,826.5 960.0,758.8" fill="#2A2A2A" stroke="#FFFFFF" stroke-width="0.3"/><polygon points="751.9,826.5 751.9,961.7 831.4,935.9" fill="#FFFFFF" stroke="#FFFFFF" stroke-width="0.3"/><polygon points="751.9,961.7 751.9,826.5 623.2,1003.5" fill="#2A2A2A" stroke="#FFFFFF" stroke-width="0.3"/><polygon points="831.4,1071.2 960.0,1112.9 831.4,935.9" fill="#2A2A2A" stroke="#FFFFFF" stroke-width="0.3"/><polygon points="751.9,961.7 831.4,1071.2 623.2,1003.5" fill="#2A2A2A" stroke="#FFFFFF" stroke-width="0.3"/><polygon points="831.4,1071.2 751.9,961.7 831.4,935.9" fill="#FFFFFF" stroke="#FFFFFF" stroke-width="0.3"/><polygon points="543.7,1112.9 623.2,1222.4 623.2,1003.5" fill="#2A2A2A" stroke="#FFFFFF" stroke-width="0.3"/><polygon points="623.2,1222.4 543.7,1112.9 494.6,1180.6" fill="#FFFFFF" stroke="#FFFFFF" stroke-width="0.3"/><polygon points="702.7,1112.9 623.2,1222.4 623.2,1003.5" fill="#2A2A2A" stroke="#FFFFFF" stroke-width="0.3"/><polygon points="623.2,1222.4 702.7,1112.9 751.9,1180.6" fill="#FFFFFF" stroke="#FFFFFF" stroke-width="0.3"/><polygon points="-129.8,1112.9 -1.2,1071.2 -50.3,1003.5" fill="#FFFFFF" stroke="#FFFFFF" stroke-width="0.3"/><polygon points="-1.2,1071.2 -129.8,1112.9 78.3,1180.6" fill="#2A2A2A" stroke="#FFFFFF" stroke-width="0.3"/><polygon points="78.3,961.7 78.3,826.5 -50.3,1003.5" fill="#2A2A2A" stroke="#FFFFFF" stroke-width="0.3"/><polygon points="-1.2,1071.2 78.3,961.7 78.3,1180.6" fill="#2A2A2A" stroke="#FFFFFF" stroke-width="0.3"/><polygon points="78.3,961.7 -1.2,1071.2 -50.3,1003.5" fill="#FFFFFF" stroke="#FFFFFF" stroke-width="0.3"/><polygon points="-50.3,868.3 78.3,826.5 -50.3,1003.5" fill="#2A2A2A" stroke="#FFFFFF" stroke-width="0.3"/><polygon points="-129.8,977.7 -50.3,868.3 -258.4,935.9" fill="#2A2A2A" stroke="#FFFFFF" stroke-width="0.3"/><polygon points="-50.3,868.3 -129.8,977.7 -50.3,1003.5" fill="#FFFFFF" stroke="#FFFFFF" stroke-width="0.3"/><polygon points="-129.8,1112.9 -129.8,977.7 -50.3,1003.5" fill="#FFFFFF" stroke="#FFFFFF" stroke-width="0.3"/><polygon points="-129.8,1112.9 -50.3,1222.4 -129.8,1248.2" fill="#FFFFFF" stroke="#FFFFFF" stroke-width="0.3"/><polygon points="-50.3,1222.4 -129.8,1112.9 78.3,1180.6" fill="#2A2A2A" stroke="#FFFFFF" stroke-width="0.3"/><polygon points="494.6,826.5 415.1,717.1 415.1,935.9" fill="#2A2A2A" stroke="#FFFFFF" stroke-width="0.3"/><polygon points="494.6,961.7 494.6,826.5 623.2,1003.5" fill="#2A2A2A" stroke="#FFFFFF" stroke-width="0.3"/><polygon points="494.6,826.5 494.6,961.7 415.1,935.9" fill="#FFFFFF" stroke="#FFFFFF" stroke-width="0.3"/><polygon points="207.0,868.3 78.3,826.5 286.5,758.8" fill="#2A2A2A" stroke="#FFFFFF" stroke-width="0.3"/><polygon points="335.6,826.5 207.0,868.3 415.1,935.9" fill="#2A2A2A" stroke="#FFFFFF" stroke-width="0.3"/><polygon points="207.0,868.3 335.6,826.5 286.5,758.8" fill="#FFFFFF" stroke="#FFFFFF" stroke-width="0.3"/><polygon points="415.1,717.1 335.6,826.5 286.5,758.8" fill="#FFFFFF" stroke="#FFFFFF" stroke-width="0.3"/><polygon points="335.6,826.5 415.1,717.1 415.1,935.9" fill="#2A2A2A" stroke="#FFFFFF" stroke-width="0.3"/><polygon points="831.4,717.1 751.9,826.5 751.9,607.6" fill="#2A2A2A" stroke="#FFFFFF" stroke-width="0.3"/><polygon points="831.4,581.8 831.4,717.1 960.0,540.0" fill="#2A2A2A" stroke="#FFFFFF" stroke-width="0.3"/><polygon points="831.4,717.1 831.4,581.8 751.9,607.6" fill="#FFFFFF" stroke="#FFFFFF" stroke-width="0.3"/><polygon points="543.7,675.3 415.1,717.1 623.2,784.7" fill="#2A2A2A" stroke="#FFFFFF" stroke-width="0.3"/><polygon points="672.4,717.1 543.7,675.3 751.9,607.6" fill="#2A2A2A" stroke="#FFFFFF" stroke-width="0.3"/><polygon points="543.7,675.3 672.4,717.1 623.2,784.7" fill="#FFFFFF" stroke="#FFFFFF" stroke-width="0.3"/><polygon points="751.9,826.5 672.4,717.1 623.2,784.7" fill="#FFFFFF" stroke="#FFFFFF" stroke-width="0.3"/><polygon points="672.4,717.1 751.9,826.5 751.9,607.6" fill="#2A2A2A" stroke="#FFFFFF" stroke-width="0.3"/><polygon points="751.9,826.5 623.2,868.3 623.2,784.7" fill="#FFFFFF" stroke="#FFFFFF" stroke-width="0.3"/><polygon points="623.2,868.3 751.9,826.5 623.2,1003.5" fill="#2A2A2A" stroke="#FFFFFF" stroke-width="0.3"/><polygon points="494.6,826.5 415.1,717.1 623.2,784.7" fill="#2A2A2A" stroke="#FFFFFF" stroke-width="0.3"/><polygon points="623.2,868.3 494.6,826.5 623.2,1003.5" fill="#2A2A2A" stroke="#FFFFFF" stroke-width="0.3"/><polygon points="494.6,826.5 623.2,868.3 623.2,784.7" fill="#FFFFFF" stroke="#FFFFFF" stroke-width="0.3"/><polygon points="415.1,1071.2 286.5,1112.9 494.6,1180.6" fill="#2A2A2A" stroke="#FFFFFF" stroke-width="0.3"/><polygon points="543.7,1112.9 415.1,1071.2 623.2,1003.5" fill="#2A2A2A" stroke="#FFFFFF" stroke-width="0.3"/><polygon points="415.1,1071.2 543.7,1112.9 494.6,1180.6" fill="#FFFFFF" stroke="#FFFFFF" stroke-width="0.3"/><polygon points="286.5,1112.9 366.0,1222.4 286.5,1248.2" fill="#FFFFFF" stroke="#FFFFFF" stroke-width="0.3"/><polygon points="366.0,1222.4 286.5,1112.9 494.6,1180.6" fill="#2A2A2A" stroke="#FFFFFF" stroke-width="0.3"/><polygon points="286.5,1112.9 207.0,1222.4 286.5,1248.2" fill="#FFFFFF" stroke="#FFFFFF" stroke-width="0.3"/><polygon points="207.0,1222.4 286.5,1112.9 78.3,1180.6" fill="#2A2A2A" stroke="#FFFFFF" stroke-width="0.3"/><polygon points="286.5,1112.9 157.8,1071.2 207.0,1003.5" fill="#FFFFFF" stroke="#FFFFFF" stroke-width="0.3"/><polygon points="157.8,1071.2 286.5,1112.9 78.3,1180.6" fill="#2A2A2A" stroke="#FFFFFF" stroke-width="0.3"/><polygon points="78.3,961.7 78.3,826.5 207.0,1003.5" fill="#2A2A2A" stroke="#FFFFFF" stroke-width="0.3"/><polygon points="157.8,1071.2 78.3,961.7 78.3,1180.6" fill="#2A2A2A" stroke="#FFFFFF" stroke-width="0.3"/><polygon points="78.3,961.7 157.8,1071.2 207.0,1003.5" fill="#FFFFFF" stroke="#FFFFFF" stroke-width="0.3"/><polygon points="415.1,1071.2 286.5,1112.9 415.1,935.9" fill="#2A2A2A" stroke="#FFFFFF" stroke-width="0.3"/><polygon points="494.6,961.7 415.1,1071.2 623.2,1003.5" fill="#2A2A2A" stroke="#FFFFFF" stroke-width="0.3"/><polygon points="415.1,1071.2 494.6,961.7 415.1,935.9" fill="#FFFFFF" stroke="#FFFFFF" stroke-width="0.3"/><polygon points="207.0,868.3 78.3,826.5 207.0,1003.5" fill="#2A2A2A" stroke="#FFFFFF" stroke-width="0.3"/><polygon points="286.5,977.7 207.0,868.3 415.1,935.9" fill="#2A2A2A" stroke="#FFFFFF" stroke-width="0.3"/><polygon points="207.0,868.3 286.5,977.7 207.0,1003.5" fill="#FFFFFF" stroke="#FFFFFF" stroke-width="0.3"/><polygon points="286.5,1112.9 286.5,977.7 207.0,1003.5" fill="#FFFFFF" stroke="#FFFFFF" stroke-width="0.3"/><polygon points="286.5,977.7 286.5,1112.9 415.1,935.9" fill="#2A2A2A" stroke="#FFFFFF" stroke-width="0.3"/><polygon points="-1.2,717.1 78.3,826.5 -129.8,758.8" fill="#2A2A2A" stroke="#FFFFFF" stroke-width="0.3"/><polygon points="-129.8,675.3 -1.2,717.1 -129.8,540.0" fill="#2A2A2A" stroke="#FFFFFF" stroke-width="0.3"/><polygon points="-1.2,717.1 -129.8,675.3 -129.8,758.8" fill="#FFFFFF" stroke="#FFFFFF" stroke-width="0.3"/><polygon points="-50.3,868.3 78.3,826.5 -129.8,758.8" fill="#2A2A2A" stroke="#FFFFFF" stroke-width="0.3"/><polygon points="-178.9,826.5 -50.3,868.3 -258.4,935.9" fill="#2A2A2A" stroke="#FFFFFF" stroke-width="0.3"/><polygon points="-50.3,868.3 -178.9,826.5 -129.8,758.8" fill="#FFFFFF" stroke="#FFFFFF" stroke-width="0.3"/><polygon points="415.1,581.8 415.1,717.1 286.5,540.0" fill="#2A2A2A" stroke="#FFFFFF" stroke-width="0.3"/><polygon points="335.6,472.4 415.1,581.8 415.1,362.9" fill="#2A2A2A" stroke="#FFFFFF" stroke-width="0.3"/><polygon points="415.1,581.8 335.6,472.4 286.5,540.0" fill="#FFFFFF" stroke="#FFFFFF" stroke-width="0.3"/><polygon points="157.8,717.1 78.3,826.5 286.5,758.8" fill="#2A2A2A" stroke="#FFFFFF" stroke-width="0.3"/><polygon points="286.5,675.3 157.8,717.1 286.5,540.0" fill="#2A2A2A" stroke="#FFFFFF" stroke-width="0.3"/><polygon points="157.8,717.1 286.5,675.3 286.5,758.8" fill="#FFFFFF" stroke="#FFFFFF" stroke-width="0.3"/><polygon points="415.1,717.1 286.5,675.3 286.5,758.8" fill="#FFFFFF" stroke="#FFFFFF" stroke-width="0.3"/><polygon points="286.5,675.3 415.1,717.1 286.5,540.0" fill="#2A2A2A" stroke="#FFFFFF" stroke-width="0.3"/><polygon points="751.9,472.4 623.2,430.6 751.9,607.6" fill="#2A2A2A" stroke="#FFFFFF" stroke-width="0.3"/><polygon points="831.4,581.8 751.9,472.4 960.0,540.0" fill="#2A2A2A" stroke="#FFFFFF" stroke-width="0.3"/><polygon points="751.9,472.4 831.4,581.8 751.9,607.6" fill="#FFFFFF" stroke="#FFFFFF" stroke-width="0.3"/><polygon points="543.7,675.3 415.1,717.1 543.7,540.0" fill="#2A2A2A" stroke="#FFFFFF" stroke-width="0.3"/><polygon points="623.2,565.8 543.7,675.3 751.9,607.6" fill="#2A2A2A" stroke="#FFFFFF" stroke-width="0.3"/><polygon points="543.7,675.3 623.2,565.8 543.7,540.0" fill="#FFFFFF" stroke="#FFFFFF" stroke-width="0.3"/><polygon points="623.2,430.6 623.2,565.8 543.7,540.0" fill="#FFFFFF" stroke="#FFFFFF" stroke-width="0.3"/><polygon points="623.2,565.8 623.2,430.6 751.9,607.6" fill="#2A2A2A" stroke="#FFFFFF" stroke-width="0.3"/><polygon points="623.2,430.6 494.6,472.4 543.7,540.0" fill="#FFFFFF" stroke="#FFFFFF" stroke-width="0.3"/><polygon points="494.6,472.4 623.2,430.6 415.1,362.9" fill="#2A2A2A" stroke="#FFFFFF" stroke-width="0.3"/><polygon points="415.1,581.8 415.1,717.1 543.7,540.0" fill="#2A2A2A" stroke="#FFFFFF" stroke-width="0.3"/><polygon points="494.6,472.4 415.1,581.8 415.1,362.9" fill="#2A2A2A" stroke="#FFFFFF" stroke-width="0.3"/><polygon points="415.1,581.8 494.6,472.4 543.7,540.0" fill="#FFFFFF" stroke="#FFFFFF" stroke-width="0.3"/><polygon points="207.0,430.6 78.3,472.4 207.0,295.3" fill="#2A2A2A" stroke="#FFFFFF" stroke-width="0.3"/><polygon points="286.5,321.2 207.0,430.6 415.1,362.9" fill="#2A2A2A" stroke="#FFFFFF" stroke-width="0.3"/><polygon points="207.0,430.6 286.5,321.2 207.0,295.3" fill="#FFFFFF" stroke="#FFFFFF" stroke-width="0.3"/><polygon points="-1.2,227.7 -129.8,185.9 -1.2,362.9" fill="#2A2A2A" stroke="#FFFFFF" stroke-width="0.3"/><polygon points="78.3,337.1 -1.2,227.7 207.0,295.3" fill="#2A2A2A" stroke="#FFFFFF" stroke-width="0.3"/><polygon points="-1.2,227.7 78.3,337.1 -1.2,362.9" fill="#FFFFFF" stroke="#FFFFFF" stroke-width="0.3"/><polygon points="78.3,472.4 78.3,337.1 -1.2,362.9" fill="#FFFFFF" stroke="#FFFFFF" stroke-width="0.3"/><polygon points="78.3,337.1 78.3,472.4 207.0,295.3" fill="#2A2A2A" stroke="#FFFFFF" stroke-width="0.3"/><polygon points="78.3,472.4 -50.3,430.6 -1.2,362.9" fill="#FFFFFF" stroke="#FFFFFF" stroke-width="0.3"/><polygon points="-50.3,430.6 78.3,472.4 -129.8,540.0" fill="#2A2A2A" stroke="#FFFFFF" stroke-width="0.3"/><polygon points="-129.8,321.2 -129.8,185.9 -1.2,362.9" fill="#2A2A2A" stroke="#FFFFFF" stroke-width="0.3"/><polygon points="-50.3,430.6 -129.8,321.2 -129.8,540.0" fill="#2A2A2A" stroke="#FFFFFF" stroke-width="0.3"/><polygon points="-129.8,321.2 -50.3,430.6 -1.2,362.9" fill="#FFFFFF" stroke="#FFFFFF" stroke-width="0.3"/><polygon points="78.3,472.4 -1.2,581.8 78.3,607.6" fill="#FFFFFF" stroke="#FFFFFF" stroke-width="0.3"/><polygon points="-1.2,581.8 78.3,472.4 -129.8,540.0" fill="#2A2A2A" stroke="#FFFFFF" stroke-width="0.3"/><polygon points="-1.2,717.1 78.3,826.5 78.3,607.6" fill="#2A2A2A" stroke="#FFFFFF" stroke-width="0.3"/><polygon points="-1.2,581.8 -1.2,717.1 -129.8,540.0" fill="#2A2A2A" stroke="#FFFFFF" stroke-width="0.3"/><polygon points="-1.2,717.1 -1.2,581.8 78.3,607.6" fill="#FFFFFF" stroke="#FFFFFF" stroke-width="0.3"/><polygon points="207.0,430.6 78.3,472.4 286.5,540.0" fill="#2A2A2A" stroke="#FFFFFF" stroke-width="0.3"/><polygon points="335.6,472.4 207.0,430.6 415.1,362.9" fill="#2A2A2A" stroke="#FFFFFF" stroke-width="0.3"/><polygon points="207.0,430.6 335.6,472.4 286.5,540.0" fill="#FFFFFF" stroke="#FFFFFF" stroke-width="0.3"/><polygon points="157.8,717.1 78.3,826.5 78.3,607.6" fill="#2A2A2A" stroke="#FFFFFF" stroke-width="0.3"/><polygon points="157.8,581.8 157.8,717.1 286.5,540.0" fill="#2A2A2A" stroke="#FFFFFF" stroke-width="0.3"/><polygon points="157.8,717.1 157.8,581.8 78.3,607.6" fill="#FFFFFF" stroke="#FFFFFF" stroke-width="0.3"/><polygon points="78.3,472.4 157.8,581.8 78.3,607.6" fill="#FFFFFF" stroke="#FFFFFF" stroke-width="0.3"/><polygon points="157.8,581.8 78.3,472.4 286.5,540.0" fill="#2A2A2A" stroke="#FFFFFF" stroke-width="0.3"/><polygon points="-50.3,-58.8 -129.8,-168.2 78.3,-100.6" fill="#2A2A2A" stroke="#FFFFFF" stroke-width="0.3"/><polygon points="-129.8,-168.2 -50.3,-58.8 -129.8,-32.9" fill="#FFFFFF" stroke="#FFFFFF" stroke-width="0.3"/><polygon points="543.7,185.9 623.2,76.5 415.1,144.1" fill="#2A2A2A" stroke="#FFFFFF" stroke-width="0.3"/><polygon points="415.1,227.7 543.7,185.9 415.1,362.9" fill="#2A2A2A" stroke="#FFFFFF" stroke-width="0.3"/><polygon points="543.7,185.9 415.1,227.7 415.1,144.1" fill="#FFFFFF" stroke="#FFFFFF" stroke-width="0.3"/><polygon points="415.1,-74.7 415.1,-210.0 543.7,-32.9" fill="#2A2A2A" stroke="#FFFFFF" stroke-width="0.3"/><polygon points="494.6,34.7 415.1,-74.7 415.1,144.1" fill="#2A2A2A" stroke="#FFFFFF" stroke-width="0.3"/><polygon points="415.1,-74.7 494.6,34.7 543.7,-32.9" fill="#FFFFFF" stroke="#FFFFFF" stroke-width="0.3"/><polygon points="623.2,76.5 494.6,34.7 543.7,-32.9" fill="#FFFFFF" stroke="#FFFFFF" stroke-width="0.3"/><polygon points="494.6,34.7 623.2,76.5 415.1,144.1" fill="#2A2A2A" stroke="#FFFFFF" stroke-width="0.3"/><polygon points="751.9,472.4 623.2,430.6 831.4,362.9" fill="#2A2A2A" stroke="#FFFFFF" stroke-width="0.3"/><polygon points="880.5,430.6 751.9,472.4 960.0,540.0" fill="#2A2A2A" stroke="#FFFFFF" stroke-width="0.3"/><polygon points="751.9,472.4 880.5,430.6 831.4,362.9" fill="#FFFFFF" stroke="#FFFFFF" stroke-width="0.3"/><polygon points="702.7,185.9 623.2,76.5 623.2,295.3" fill="#2A2A2A" stroke="#FFFFFF" stroke-width="0.3"/><polygon points="702.7,321.2 702.7,185.9 831.4,362.9" fill="#2A2A2A" stroke="#FFFFFF" stroke-width="0.3"/><polygon points="702.7,185.9 702.7,321.2 623.2,295.3" fill="#FFFFFF" stroke="#FFFFFF" stroke-width="0.3"/><polygon points="623.2,430.6 702.7,321.2 623.2,295.3" fill="#FFFFFF" stroke="#FFFFFF" stroke-width="0.3"/><polygon points="702.7,321.2 623.2,430.6 831.4,362.9" fill="#2A2A2A" stroke="#FFFFFF" stroke-width="0.3"/><polygon points="623.2,430.6 543.7,321.2 623.2,295.3" fill="#FFFFFF" stroke="#FFFFFF" stroke-width="0.3"/><polygon points="543.7,321.2 623.2,430.6 415.1,362.9" fill="#2A2A2A" stroke="#FFFFFF" stroke-width="0.3"/><polygon points="543.7,185.9 623.2,76.5 623.2,295.3" fill="#2A2A2A" stroke="#FFFFFF" stroke-width="0.3"/><polygon points="543.7,321.2 543.7,185.9 415.1,362.9" fill="#2A2A2A" stroke="#FFFFFF" stroke-width="0.3"/><polygon points="543.7,185.9 543.7,321.2 623.2,295.3" fill="#FFFFFF" stroke="#FFFFFF" stroke-width="0.3"/><polygon points="-50.3,76.5 -129.8,185.9 -129.8,-32.9" fill="#2A2A2A" stroke="#FFFFFF" stroke-width="0.3"/><polygon points="-50.3,-58.8 -50.3,76.5 78.3,-100.6" fill="#2A2A2A" stroke="#FFFFFF" stroke-width="0.3"/><polygon points="-50.3,76.5 -50.3,-58.8 -129.8,-32.9" fill="#FFFFFF" stroke="#FFFFFF" stroke-width="0.3"/><polygon points="286.5,185.9 207.0,76.5 207.0,295.3" fill="#2A2A2A" stroke="#FFFFFF" stroke-width="0.3"/><polygon points="286.5,321.2 286.5,185.9 415.1,362.9" fill="#2A2A2A" stroke="#FFFFFF" stroke-width="0.3"/><polygon points="286.5,185.9 286.5,321.2 207.0,295.3" fill="#FFFFFF" stroke="#FFFFFF" stroke-width="0.3"/><polygon points="-1.2,227.7 -129.8,185.9 78.3,118.3" fill="#2A2A2A" stroke="#FFFFFF" stroke-width="0.3"/><polygon points="127.5,185.9 -1.2,227.7 207.0,295.3" fill="#2A2A2A" stroke="#FFFFFF" stroke-width="0.3"/><polygon points="-1.2,227.7 127.5,185.9 78.3,118.3" fill="#FFFFFF" stroke="#FFFFFF" stroke-width="0.3"/><polygon points="207.0,76.5 127.5,185.9 78.3,118.3" fill="#FFFFFF" stroke="#FFFFFF" stroke-width="0.3"/><polygon points="127.5,185.9 207.0,76.5 207.0,295.3" fill="#2A2A2A" stroke="#FFFFFF" stroke-width="0.3"/><polygon points="207.0,76.5 78.3,34.7 78.3,118.3" fill="#FFFFFF" stroke="#FFFFFF" stroke-width="0.3"/><polygon points="78.3,34.7 207.0,76.5 78.3,-100.6" fill="#2A2A2A" stroke="#FFFFFF" stroke-width="0.3"/><polygon points="-50.3,76.5 -129.8,185.9 78.3,118.3" fill="#2A2A2A" stroke="#FFFFFF" stroke-width="0.3"/><polygon points="78.3,34.7 -50.3,76.5 78.3,-100.6" fill="#2A2A2A" stroke="#FFFFFF" stroke-width="0.3"/><polygon points="-50.3,76.5 78.3,34.7 78.3,118.3" fill="#FFFFFF" stroke="#FFFFFF" stroke-width="0.3"/><polygon points="207.0,76.5 207.0,-58.8 286.5,-32.9" fill="#FFFFFF" stroke="#FFFFFF" stroke-width="0.3"/><polygon points="207.0,-58.8 207.0,76.5 78.3,-100.6" fill="#2A2A2A" stroke="#FFFFFF" stroke-width="0.3"/><polygon points="286.5,-168.2 415.1,-210.0 286.5,-32.9" fill="#2A2A2A" stroke="#FFFFFF" stroke-width="0.3"/><polygon points="207.0,-58.8 286.5,-168.2 78.3,-100.6" fill="#2A2A2A" stroke="#FFFFFF" stroke-width="0.3"/><polygon points="286.5,-168.2 207.0,-58.8 286.5,-32.9" fill="#FFFFFF" stroke="#FFFFFF" stroke-width="0.3"/><polygon points="286.5,185.9 207.0,76.5 415.1,144.1" fill="#2A2A2A" stroke="#FFFFFF" stroke-width="0.3"/><polygon points="415.1,227.7 286.5,185.9 415.1,362.9" fill="#2A2A2A" stroke="#FFFFFF" stroke-width="0.3"/><polygon points="286.5,185.9 415.1,227.7 415.1,144.1" fill="#FFFFFF" stroke="#FFFFFF" stroke-width="0.3"/><polygon points="415.1,-74.7 415.1,-210.0 286.5,-32.9" fill="#2A2A2A" stroke="#FFFFFF" stroke-width="0.3"/><polygon points="335.6,34.7 415.1,-74.7 415.1,144.1" fill="#2A2A2A" stroke="#FFFFFF" stroke-width="0.3"/><polygon points="415.1,-74.7 335.6,34.7 286.5,-32.9" fill="#FFFFFF" stroke="#FFFFFF" stroke-width="0.3"/><polygon points="207.0,76.5 335.6,34.7 286.5,-32.9" fill="#FFFFFF" stroke="#FFFFFF" stroke-width="0.3"/><polygon points="335.6,34.7 207.0,76.5 415.1,144.1" fill="#2A2A2A" stroke="#FFFFFF" stroke-width="0.3"/><polygon points="751.9,34.7 623.2,76.5 751.9,-100.6" fill="#2A2A2A" stroke="#FFFFFF" stroke-width="0.3"/><polygon points="831.4,-74.7 751.9,34.7 960.0,-32.9" fill="#2A2A2A" stroke="#FFFFFF" stroke-width="0.3"/><polygon points="751.9,34.7 831.4,-74.7 751.9,-100.6" fill="#FFFFFF" stroke="#FFFFFF" stroke-width="0.3"/><polygon points="543.7,-168.2 415.1,-210.0 543.7,-32.9" fill="#2A2A2A" stroke="#FFFFFF" stroke-width="0.3"/><polygon points="623.2,-58.8 543.7,-168.2 751.9,-100.6" fill="#2A2A2A" stroke="#FFFFFF" stroke-width="0.3"/><polygon points="543.7,-168.2 623.2,-58.8 543.7,-32.9" fill="#FFFFFF" stroke="#FFFFFF" stroke-width="0.3"/><polygon points="623.2,76.5 623.2,-58.8 543.7,-32.9" fill="#FFFFFF" stroke="#FFFFFF" stroke-width="0.3"/><polygon points="623.2,-58.8 623.2,76.5 751.9,-100.6" fill="#2A2A2A" stroke="#FFFFFF" stroke-width="0.3"/><polygon points="960.0,321.2 960.0,185.9 831.4,362.9" fill="#2A2A2A" stroke="#FFFFFF" stroke-width="0.3"/><polygon points="880.5,430.6 960.0,321.2 960.0,540.0" fill="#2A2A2A" stroke="#FFFFFF" stroke-width="0.3"/><polygon points="960.0,321.2 880.5,430.6 831.4,362.9" fill="#FFFFFF" stroke="#FFFFFF" stroke-width="0.3"/><polygon points="702.7,185.9 623.2,76.5 831.4,144.1" fill="#2A2A2A" stroke="#FFFFFF" stroke-width="0.3"/><polygon points="831.4,227.7 702.7,185.9 831.4,362.9" fill="#2A2A2A" stroke="#FFFFFF" stroke-width="0.3"/><polygon points="702.7,185.9 831.4,227.7 831.4,144.1" fill="#FFFFFF" stroke="#FFFFFF" stroke-width="0.3"/><polygon points="960.0,185.9 831.4,227.7 831.4,144.1" fill="#FFFFFF" stroke="#FFFFFF" stroke-width="0.3"/><polygon points="831.4,227.7 960.0,185.9 831.4,362.9" fill="#2A2A2A" stroke="#FFFFFF" stroke-width="0.3"/><polygon points="960.0,185.9 880.5,76.5 831.4,144.1" fill="#FFFFFF" stroke="#FFFFFF" stroke-width="0.3"/><polygon points="880.5,76.5 960.0,185.9 960.0,-32.9" fill="#2A2A2A" stroke="#FFFFFF" stroke-width="0.3"/><polygon points="751.9,34.7 623.2,76.5 831.4,144.1" fill="#2A2A2A" stroke="#FFFFFF" stroke-width="0.3"/><polygon points="880.5,76.5 751.9,34.7 960.0,-32.9" fill="#2A2A2A" stroke="#FFFFFF" stroke-width="0.3"/><polygon points="751.9,34.7 880.5,76.5 831.4,144.1" fill="#FFFFFF" stroke="#FFFFFF" stroke-width="0.3"/><polygon points="960.0,-168.2 831.4,-210.0 960.0,-32.9" fill="#2A2A2A" stroke="#FFFFFF" stroke-width="0.3"/><polygon points="831.4,-74.7 831.4,-210.0 960.0,-32.9" fill="#2A2A2A" stroke="#FFFFFF" stroke-width="0.3"/><polygon points="831.4,-210.0 831.4,-74.7 751.9,-100.6" fill="#FFFFFF" stroke="#FFFFFF" stroke-width="0.3"/><polygon points="1168.1,34.7 1296.8,76.5 1168.1,-100.6" fill="#2A2A2A" stroke="#FFFFFF" stroke-width="0.3"/><polygon points="1088.6,-74.7 1168.1,34.7 960.0,-32.9" fill="#2A2A2A" stroke="#FFFFFF" stroke-width="0.3"/><polygon points="1168.1,34.7 1088.6,-74.7 1168.1,-100.6" fill="#FFFFFF" stroke="#FFFFFF" stroke-width="0.3"/><polygon points="1376.3,-168.2 1504.9,-210.0 1376.3,-32.9" fill="#2A2A2A" stroke="#FFFFFF" stroke-width="0.3"/><polygon points="1296.8,-58.8 1376.3,-168.2 1168.1,-100.6" fill="#2A2A2A" stroke="#FFFFFF" stroke-width="0.3"/><polygon points="1376.3,-168.2 1296.8,-58.8 1376.3,-32.9" fill="#FFFFFF" stroke="#FFFFFF" stroke-width="0.3"/><polygon points="1296.8,76.5 1296.8,-58.8 1376.3,-32.9" fill="#FFFFFF" stroke="#FFFFFF" stroke-width="0.3"/><polygon points="1296.8,-58.8 1296.8,76.5 1168.1,-100.6" fill="#2A2A2A" stroke="#FFFFFF" stroke-width="0.3"/><polygon points="960.0,321.2 960.0,185.9 1088.6,362.9" fill="#2A2A2A" stroke="#FFFFFF" stroke-width="0.3"/><polygon points="1039.5,430.6 960.0,321.2 960.0,540.0" fill="#2A2A2A" stroke="#FFFFFF" stroke-width="0.3"/><polygon points="960.0,321.2 1039.5,430.6 1088.6,362.9" fill="#FFFFFF" stroke="#FFFFFF" stroke-width="0.3"/><polygon points="1217.3,185.9 1296.8,76.5 1088.6,144.1" fill="#2A2A2A" stroke="#FFFFFF" stroke-width="0.3"/><polygon points="1088.6,227.7 1217.3,185.9 1088.6,362.9" fill="#2A2A2A" stroke="#FFFFFF" stroke-width="0.3"/><polygon points="1217.3,185.9 1088.6,227.7 1088.6,144.1" fill="#FFFFFF" stroke="#FFFFFF" stroke-width="0.3"/><polygon points="960.0,185.9 1088.6,227.7 1088.6,144.1" fill="#FFFFFF" stroke="#FFFFFF" stroke-width="0.3"/><polygon points="1088.6,227.7 960.0,185.9 1088.6,362.9" fill="#2A2A2A" stroke="#FFFFFF" stroke-width="0.3"/><polygon points="960.0,185.9 1039.5,76.5 1088.6,144.1" fill="#FFFFFF" stroke="#FFFFFF" stroke-width="0.3"/><polygon points="1039.5,76.5 960.0,185.9 960.0,-32.9" fill="#2A2A2A" stroke="#FFFFFF" stroke-width="0.3"/><polygon points="1168.1,34.7 1296.8,76.5 1088.6,144.1" fill="#2A2A2A" stroke="#FFFFFF" stroke-width="0.3"/><polygon points="1039.5,76.5 1168.1,34.7 960.0,-32.9" fill="#2A2A2A" stroke="#FFFFFF" stroke-width="0.3"/><polygon points="1168.1,34.7 1039.5,76.5 1088.6,144.1" fill="#FFFFFF" stroke="#FFFFFF" stroke-width="0.3"/><polygon points="960.0,-168.2 1088.6,-210.0 960.0,-32.9" fill="#2A2A2A" stroke="#FFFFFF" stroke-width="0.3"/><polygon points="1088.6,-74.7 1088.6,-210.0 960.0,-32.9" fill="#2A2A2A" stroke="#FFFFFF" stroke-width="0.3"/><polygon points="1088.6,-210.0 1088.6,-74.7 1168.1,-100.6" fill="#FFFFFF" stroke="#FFFFFF" stroke-width="0.3"/><polygon points="1970.3,-58.8 2049.8,-168.2 1841.7,-100.6" fill="#2A2A2A" stroke="#FFFFFF" stroke-width="0.3"/><polygon points="2049.8,-168.2 1970.3,-58.8 2049.8,-32.9" fill="#FFFFFF" stroke="#FFFFFF" stroke-width="0.3"/><polygon points="1376.3,185.9 1296.8,76.5 1504.9,144.1" fill="#2A2A2A" stroke="#FFFFFF" stroke-width="0.3"/><polygon points="1504.9,227.7 1376.3,185.9 1504.9,362.9" fill="#2A2A2A" stroke="#FFFFFF" stroke-width="0.3"/><polygon points="1376.3,185.9 1504.9,227.7 1504.9,144.1" fill="#FFFFFF" stroke="#FFFFFF" stroke-width="0.3"/><polygon points="1504.9,-74.7 1504.9,-210.0 1376.3,-32.9" fill="#2A2A2A" stroke="#FFFFFF" stroke-width="0.3"/><polygon points="1425.4,34.7 1504.9,-74.7 1504.9,144.1" fill="#2A2A2A" stroke="#FFFFFF" stroke-width="0.3"/><polygon points="1504.9,-74.7 1425.4,34.7 1376.3,-32.9" fill="#FFFFFF" stroke="#FFFFFF" stroke-width="0.3"/><polygon points="1296.8,76.5 1425.4,34.7 1376.3,-32.9" fill="#FFFFFF" stroke="#FFFFFF" stroke-width="0.3"/><polygon points="1425.4,34.7 1296.8,76.5 1504.9,144.1" fill="#2A2A2A" stroke="#FFFFFF" stroke-width="0.3"/><polygon points="1168.1,472.4 1296.8,430.6 1088.6,362.9" fill="#2A2A2A" stroke="#FFFFFF" stroke-width="0.3"/><polygon points="1039.5,430.6 1168.1,472.4 960.0,540.0" fill="#2A2A2A" stroke="#FFFFFF" stroke-width="0.3"/><polygon points="1168.1,472.4 1039.5,430.6 1088.6,362.9" fill="#FFFFFF" stroke="#FFFFFF" stroke-width="0.3"/><polygon points="1217.3,185.9 1296.8,76.5 1296.8,295.3" fill="#2A2A2A" stroke="#FFFFFF" stroke-width="0.3"/><polygon points="1217.3,321.2 1217.3,185.9 1088.6,362.9" fill="#2A2A2A" stroke="#FFFFFF" stroke-width="0.3"/><polygon points="1217.3,185.9 1217.3,321.2 1296.8,295.3" fill="#FFFFFF" stroke="#FFFFFF" stroke-width="0.3"/><polygon points="1296.8,430.6 1217.3,321.2 1296.8,295.3" fill="#FFFFFF" stroke="#FFFFFF" stroke-width="0.3"/><polygon points="1217.3,321.2 1296.8,430.6 1088.6,362.9" fill="#2A2A2A" stroke="#FFFFFF" stroke-width="0.3"/><polygon points="1296.8,430.6 1376.3,321.2 1296.8,295.3" fill="#FFFFFF" stroke="#FFFFFF" stroke-width="0.3"/><polygon points="1376.3,321.2 1296.8,430.6 1504.9,362.9" fill="#2A2A2A" stroke="#FFFFFF" stroke-width="0.3"/><polygon points="1376.3,185.9 1296.8,76.5 1296.8,295.3" fill="#2A2A2A" stroke="#FFFFFF" stroke-width="0.3"/><polygon points="1376.3,321.2 1376.3,185.9 1504.9,362.9" fill="#2A2A2A" stroke="#FFFFFF" stroke-width="0.3"/><polygon points="1376.3,185.9 1376.3,321.2 1296.8,295.3" fill="#FFFFFF" stroke="#FFFFFF" stroke-width="0.3"/><polygon points="1970.3,76.5 2049.8,185.9 2049.8,-32.9" fill="#2A2A2A" stroke="#FFFFFF" stroke-width="0.3"/><polygon points="1970.3,-58.8 1970.3,76.5 1841.7,-100.6" fill="#2A2A2A" stroke="#FFFFFF" stroke-width="0.3"/><polygon points="1970.3,76.5 1970.3,-58.8 2049.8,-32.9" fill="#FFFFFF" stroke="#FFFFFF" stroke-width="0.3"/><polygon points="1633.5,185.9 1713.0,76.5 1713.0,295.3" fill="#2A2A2A" stroke="#FFFFFF" stroke-width="0.3"/><polygon points="1633.5,321.2 1633.5,185.9 1504.9,362.9" fill="#2A2A2A" stroke="#FFFFFF" stroke-width="0.3"/><polygon points="1633.5,185.9 1633.5,321.2 1713.0,295.3" fill="#FFFFFF" stroke="#FFFFFF" stroke-width="0.3"/><polygon points="1921.2,227.7 2049.8,185.9 1841.7,118.3" fill="#2A2A2A" stroke="#FFFFFF" stroke-width="0.3"/><polygon points="1792.5,185.9 1921.2,227.7 1713.0,295.3" fill="#2A2A2A" stroke="#FFFFFF" stroke-width="0.3"/><polygon points="1921.2,227.7 1792.5,185.9 1841.7,118.3" fill="#FFFFFF" stroke="#FFFFFF" stroke-width="0.3"/><polygon points="1713.0,76.5 1792.5,185.9 1841.7,118.3" fill="#FFFFFF" stroke="#FFFFFF" stroke-width="0.3"/><polygon points="1792.5,185.9 1713.0,76.5 1713.0,295.3" fill="#2A2A2A" stroke="#FFFFFF" stroke-width="0.3"/><polygon points="1713.0,76.5 1841.7,34.7 1841.7,118.3" fill="#FFFFFF" stroke="#FFFFFF" stroke-width="0.3"/><polygon points="1841.7,34.7 1713.0,76.5 1841.7,-100.6" fill="#2A2A2A" stroke="#FFFFFF" stroke-width="0.3"/><polygon points="1970.3,76.5 2049.8,185.9 1841.7,118.3" fill="#2A2A2A" stroke="#FFFFFF" stroke-width="0.3"/><polygon points="1841.7,34.7 1970.3,76.5 1841.7,-100.6" fill="#2A2A2A" stroke="#FFFFFF" stroke-width="0.3"/><polygon points="1970.3,76.5 1841.7,34.7 1841.7,118.3" fill="#FFFFFF" stroke="#FFFFFF" stroke-width="0.3"/><polygon points="1713.0,76.5 1713.0,-58.8 1633.5,-32.9" fill="#FFFFFF" stroke="#FFFFFF" stroke-width="0.3"/><polygon points="1713.0,-58.8 1713.0,76.5 1841.7,-100.6" fill="#2A2A2A" stroke="#FFFFFF" stroke-width="0.3"/><polygon points="1633.5,-168.2 1504.9,-210.0 1633.5,-32.9" fill="#2A2A2A" stroke="#FFFFFF" stroke-width="0.3"/><polygon points="1713.0,-58.8 1633.5,-168.2 1841.7,-100.6" fill="#2A2A2A" stroke="#FFFFFF" stroke-width="0.3"/><polygon points="1633.5,-168.2 1713.0,-58.8 1633.5,-32.9" fill="#FFFFFF" stroke="#FFFFFF" stroke-width="0.3"/><polygon points="1633.5,185.9 1713.0,76.5 1504.9,144.1" fill="#2A2A2A" stroke="#FFFFFF" stroke-width="0.3"/><polygon points="1504.9,227.7 1633.5,185.9 1504.9,362.9" fill="#2A2A2A" stroke="#FFFFFF" stroke-width="0.3"/><polygon points="1633.5,185.9 1504.9,227.7 1504.9,144.1" fill="#FFFFFF" stroke="#FFFFFF" stroke-width="0.3"/><polygon points="1504.9,-74.7 1504.9,-210.0 1633.5,-32.9" fill="#2A2A2A" stroke="#FFFFFF" stroke-width="0.3"/><polygon points="1584.4,34.7 1504.9,-74.7 1504.9,144.1" fill="#2A2A2A" stroke="#FFFFFF" stroke-width="0.3"/><polygon points="1504.9,-74.7 1584.4,34.7 1633.5,-32.9" fill="#FFFFFF" stroke="#FFFFFF" stroke-width="0.3"/><polygon points="1713.0,76.5 1584.4,34.7 1633.5,-32.9" fill="#FFFFFF" stroke="#FFFFFF" stroke-width="0.3"/><polygon points="1584.4,34.7 1713.0,76.5 1504.9,144.1" fill="#2A2A2A" stroke="#FFFFFF" stroke-width="0.3"/></svg>